<?xml version="1.0" standalone="no"?>
<!DOCTYPE svg PUBLIC "-//W3C//DTD SVG 20010904//EN"
 "http://www.w3.org/TR/2001/REC-SVG-20010904/DTD/svg10.dtd">
<svg version="1.0" xmlns="http://www.w3.org/2000/svg"
 width="664.000000pt" height="664.000000pt" viewBox="0 0 664.000000 664.000000"
 preserveAspectRatio="xMidYMid meet">
<metadata>
Created by potrace 1.14, written by Peter Selinger 2001-2017
</metadata>
<g transform="translate(0.000000,664.000000) scale(0.100000,-0.100000)"
fill="#000000" stroke="none">
<path d="M227 6564 c-4 -4 -29 -6 -57 -5 l-50 1 0 -3200 0 -3200 48 1 c27 1
54 -1 60 -5 6 -3 13 -2 17 3 3 6 15 7 28 2 12 -4 36 -4 52 -1 17 3 40 3 52 -1
12 -5 25 -4 28 1 3 5 16 6 28 1 12 -4 36 -4 52 -1 17 3 40 3 52 -1 12 -5 25
-4 28 1 3 5 16 6 28 1 12 -4 36 -4 52 -1 17 3 40 3 52 -1 12 -5 25 -4 28 1 3
5 16 6 28 1 12 -4 36 -4 52 -1 17 3 40 3 52 -1 12 -5 25 -4 28 1 3 5 16 6 28
1 12 -4 36 -4 52 -1 17 3 40 3 52 -1 12 -5 25 -4 28 1 3 5 16 6 28 1 12 -4 36
-4 52 -1 17 3 40 3 52 -1 12 -5 25 -4 28 1 3 5 15 6 28 1 12 -5 34 -5 49 -1
14 5 29 6 31 4 4 -5 94 -6 213 -3 29 1 56 -1 62 -5 6 -3 13 -2 17 3 3 6 16 7
28 3 12 -4 37 -6 55 -5 33 3 76 4 197 3 39 0 93 1 121 1 29 1 56 -1 62 -5 6
-3 13 -2 17 3 3 6 16 7 28 3 12 -4 37 -6 55 -5 33 3 76 4 197 3 39 0 93 1 121
1 29 1 56 -1 62 -5 6 -3 13 -2 17 3 3 6 16 7 28 3 12 -4 37 -6 55 -5 33 3 76
4 197 3 39 0 93 1 121 1 29 1 56 -1 62 -5 6 -3 13 -2 17 3 3 6 16 7 28 3 12
-4 37 -6 55 -5 33 3 76 4 197 3 39 0 93 1 121 1 29 1 56 -1 62 -5 6 -3 13 -2
17 3 3 6 16 7 28 3 12 -4 37 -6 55 -5 17 2 56 3 85 3 134 0 171 1 175 5 2 2
15 0 28 -5 14 -6 26 -6 29 0 3 5 16 6 28 1 12 -4 36 -4 52 -1 17 3 40 3 52 -1
12 -5 25 -4 28 1 3 5 16 6 28 1 12 -4 36 -4 52 -1 17 3 40 3 52 -1 12 -5 25
-4 28 1 3 5 16 6 28 1 12 -4 36 -4 52 -1 17 3 40 3 52 -1 12 -5 25 -4 28 1 3
5 16 6 28 1 12 -4 36 -4 52 -1 17 3 40 3 52 -1 12 -5 25 -4 28 1 3 5 16 6 28
1 12 -4 36 -4 52 -1 17 3 40 3 52 -1 12 -5 25 -4 28 1 3 5 16 6 28 1 12 -4 36
-4 52 -1 17 3 40 3 52 -1 12 -5 25 -4 28 1 3 5 16 6 28 1 12 -4 36 -4 52 -1
17 3 40 3 52 -1 12 -5 25 -4 28 1 3 5 16 6 28 1 12 -4 36 -4 52 -1 17 3 40 3
52 -1 12 -5 25 -4 28 1 3 5 16 6 28 1 12 -4 36 -4 52 -1 17 3 40 3 52 -1 12
-5 25 -4 28 1 3 5 16 6 28 1 12 -4 36 -4 52 -1 17 3 40 3 52 -1 12 -5 25 -4
28 1 3 5 16 6 28 1 12 -4 36 -4 52 -1 17 3 40 3 52 -1 12 -5 25 -4 28 1 3 5
16 6 28 1 12 -4 36 -4 52 -1 17 3 40 3 52 -1 12 -5 25 -4 28 1 3 5 16 6 28 1
12 -4 36 -4 52 -1 17 3 40 3 52 -1 12 -5 25 -4 28 1 3 5 16 6 28 1 12 -4 36
-4 52 -1 17 3 40 3 52 -1 12 -5 25 -4 28 1 3 5 16 6 28 1 12 -4 36 -4 52 -1
17 3 40 3 52 -1 12 -5 25 -4 28 1 3 5 16 6 28 1 12 -4 33 -5 47 -1 14 3 39 4
55 0 17 -3 38 -4 48 -2 16 3 17 164 17 3202 l0 3198 -41 4 c-22 2 -42 2 -45
-1 -3 -4 -53 -4 -199 0 -16 1 -34 0 -40 -1 -15 -3 -165 0 -202 3 -18 2 -33 1
-33 -2 0 -5 -66 -5 -195 0 -22 1 -44 0 -50 -1 -14 -3 -164 -1 -202 3 -18 2
-33 1 -33 -2 0 -5 -66 -5 -195 0 -22 1 -44 0 -50 -1 -14 -3 -164 -1 -202 3
-18 2 -33 1 -33 -2 0 -5 -66 -5 -195 0 -22 1 -44 0 -50 -1 -14 -3 -164 -1
-202 3 -18 2 -33 1 -33 -2 0 -5 -66 -5 -195 0 -22 1 -44 0 -50 -1 -14 -3 -164
-1 -202 3 -18 2 -33 1 -33 -2 0 -5 -66 -5 -195 0 -22 1 -44 0 -50 -1 -14 -3
-164 -1 -202 3 -18 2 -33 1 -33 -2 0 -5 -66 -5 -195 0 -22 1 -44 0 -50 -1 -14
-3 -164 -1 -202 3 -18 2 -33 1 -33 -2 0 -5 -66 -5 -195 0 -22 1 -44 0 -50 -1
-14 -3 -164 -1 -202 3 -18 2 -33 1 -33 -2 0 -5 -66 -5 -195 0 -22 1 -44 0 -50
-1 -14 -3 -164 -1 -202 3 -18 2 -33 1 -33 -2 0 -5 -66 -5 -195 0 -22 1 -44 0
-50 -1 -14 -3 -164 -1 -202 3 -18 2 -33 1 -33 -2 0 -5 -66 -5 -195 0 -22 1
-44 0 -50 -1 -14 -3 -164 -1 -202 3 -18 2 -33 1 -33 -2 0 -5 -66 -5 -195 0
-22 1 -44 0 -50 -1 -14 -3 -164 -1 -202 3 -18 2 -33 1 -33 -2 0 -5 -66 -5
-195 0 -22 1 -44 0 -50 -1 -24 -4 -165 -1 -182 4 -11 3 -22 3 -26 0z"/>
</g>
</svg>
