<svg display="none" xmlns="http://www.w3.org/2000/svg">
    <symbol id="tel-1" viewBox="0 0 23 23" xmlns="http://www.w3.org/2000/svg">
        <g clip-path="url(#clip0)">
            <path d="M16.5305 23C15.7881 23 15.0519 22.8687 14.3321 22.6072C11.1608 21.4552 8.2172 19.5789 5.81937 17.1811C3.42153 14.7833 1.54522 11.8397 0.393249 8.6684C0.0230635 7.64925 -0.0861821 6.59723 0.0686573 5.54143C0.213704 4.55247 0.596782 3.59239 1.17652 2.76496C1.75882 1.9339 2.53513 1.24267 3.42149 0.766021C4.3667 0.257751 5.39838 0 6.48796 0C6.82683 0 7.11971 0.236774 7.19073 0.568104L8.31885 5.83269C8.36993 6.07108 8.29666 6.31913 8.1243 6.49153L6.19665 8.41914C8.0151 12.0346 10.9658 14.9853 14.5812 16.8037L16.5089 14.8761C16.6813 14.7037 16.9293 14.6305 17.1677 14.6815L22.4323 15.8097C22.7637 15.8807 23.0004 16.1735 23.0004 16.5124C23.0004 17.602 22.7426 18.6337 22.2343 19.5789C21.7577 20.4653 21.0664 21.2416 20.2354 21.8239C19.408 22.4036 18.4479 22.7867 17.4589 22.9318C17.149 22.9773 16.8391 23 16.5305 23ZM5.9137 1.46889C4.47648 1.62754 3.20084 2.38085 2.35374 3.58987C1.40117 4.94938 1.17904 6.62153 1.74431 8.17765C3.95905 14.2745 8.72601 19.0414 14.8228 21.2562C16.3789 21.8214 18.051 21.5993 19.4106 20.6467C20.6196 19.7996 21.3729 18.524 21.5316 17.0868L17.2489 16.1691L15.2357 18.1822C15.0215 18.3964 14.696 18.4533 14.4219 18.3245C10.146 16.3157 6.68479 12.8545 4.67597 8.57856C4.54718 8.30441 4.60405 7.97892 4.81828 7.76474L6.83141 5.75161L5.9137 1.46889Z"/>
        </g>
        <defs>
            <clipPath id="clip0">
                <rect width="23" height="23"/>
            </clipPath>
        </defs>
    </symbol>


    <symbol id="services-0" viewBox="0 0 66 66" fill="none" xmlns="http://www.w3.org/2000/svg">
        <path d="M62.9062 56.7188H57.75V11.3438C58.5698 11.3413 59.3552 11.0146 59.9349 10.4349C60.5146 9.85525 60.8413 9.06976 60.8438 8.25V3.09375C60.8438 2.82025 60.7351 2.55794 60.5417 2.36455C60.3483 2.17115 60.086 2.0625 59.8125 2.0625H6.1875C5.914 2.0625 5.65169 2.17115 5.4583 2.36455C5.2649 2.55794 5.15625 2.82025 5.15625 3.09375V8.25C5.1587 9.06976 5.48543 9.85525 6.06509 10.4349C6.64475 11.0146 7.43024 11.3413 8.25 11.3438V56.7188H3.09375C2.82025 56.7188 2.55794 56.8274 2.36455 57.0208C2.17115 57.2142 2.0625 57.4765 2.0625 57.75V62.9062C2.0625 63.1798 2.17115 63.4421 2.36455 63.6355C2.55794 63.8289 2.82025 63.9375 3.09375 63.9375H62.9062C63.1798 63.9375 63.4421 63.8289 63.6355 63.6355C63.8289 63.4421 63.9375 63.1798 63.9375 62.9062V57.75C63.9375 57.4765 63.8289 57.2142 63.6355 57.0208C63.4421 56.8274 63.1798 56.7188 62.9062 56.7188ZM7.21875 8.25V4.125H58.7812V8.25C58.7812 8.5235 58.6726 8.78581 58.4792 8.9792C58.2858 9.1726 58.0235 9.28125 57.75 9.28125H8.25C7.9765 9.28125 7.71419 9.1726 7.5208 8.9792C7.3274 8.78581 7.21875 8.5235 7.21875 8.25ZM55.6875 11.3438V56.7188H10.3125V11.3438H55.6875ZM61.875 61.875H4.125V58.7812H61.875V61.875Z"
              fill="#218095"/>
        <path d="M53.625 12.375H12.375C12.1015 12.375 11.8392 12.4836 11.6458 12.677C11.4524 12.8704 11.3438 13.1327 11.3438 13.4062V54.6562C11.3438 54.9298 11.4524 55.1921 11.6458 55.3855C11.8392 55.5788 12.1015 55.6875 12.375 55.6875H53.625C53.8985 55.6875 54.1608 55.5788 54.3542 55.3855C54.5476 55.1921 54.6562 54.9298 54.6562 54.6562V13.4062C54.6562 13.1327 54.5476 12.8704 54.3542 12.677C54.1608 12.4836 53.8985 12.375 53.625 12.375ZM31.9688 53.625H13.4062V34.0312H31.9688V53.625ZM31.9688 31.9688H13.4062V14.4375H31.9688V31.9688ZM52.5938 53.625H34.0312V34.0312H52.5938V53.625ZM52.5938 31.9688H34.0312V14.4375H52.5938V31.9688Z"
              fill="#218095"/>
    </symbol>

    <symbol id="services-1" viewBox="0 0 66 66" fill="none" xmlns="http://www.w3.org/2000/svg">
        <path d="M47.925 0H18.0607C15.621 0 13.6262 1.98043 13.6262 4.42004V61.5797C13.6262 64.0337 15.621 66.0141 18.0607 65.9997H47.9249C50.3789 65.9997 52.3593 64.0193 52.3737 61.5797V4.42004C52.3737 1.98043 50.379 0 47.925 0ZM49.5036 61.5941C49.5036 62.4551 48.8003 63.144 47.925 63.144H18.0607C17.1996 63.144 16.4964 62.4551 16.4964 61.5941V27.2668H49.5034V61.5941H49.5036ZM49.5036 24.3965H16.4965V4.42004C16.4965 3.55898 17.1997 2.87014 18.0608 2.87014H47.925C48.7861 2.87014 49.4893 3.55898 49.5036 4.42004V24.3965Z"
              fill="#218095"/>
        <path d="M45.1983 11.4807C44.409 11.4807 43.7632 12.1265 43.7632 12.9159V18.6563C43.7632 19.4456 44.409 20.0914 45.1983 20.0914C45.9877 20.0914 46.6335 19.4456 46.6335 18.6563V12.9159C46.6335 12.1265 45.9877 11.4807 45.1983 11.4807Z"
              fill="#218095"/>
        <path d="M45.1983 40.1826C45.9877 40.1826 46.6335 39.5369 46.6335 38.7475V31.5721C46.6335 30.7828 45.9877 30.137 45.1983 30.137C44.409 30.137 43.7632 30.7828 43.7632 31.5721V38.7475C43.7632 39.5369 44.409 40.1826 45.1983 40.1826Z"
              fill="#218095"/>
    </symbol>

    <symbol id="services-2" viewBox="0 0 66 66" fill="none" xmlns="http://www.w3.org/2000/svg">
        <path d="M65.1421 59.9663H0.857887C0.38399 59.9663 0 59.5823 0 59.1084V55.448C0 54.9741 0.38399 54.5901 0.857887 54.5901H1.90176V31.027H0.857887C0.38399 31.027 0 30.643 0 30.1691C0 29.6952 0.38399 29.3113 0.857887 29.3113H17.9219V6.89158C17.9219 6.41768 18.3059 6.03369 18.7798 6.03369H46.9978C47.4717 6.03369 47.8557 6.41768 47.8557 6.89158V29.3109H65.1421C65.616 29.3109 66 29.6949 66 30.1688C66 30.6427 65.616 31.0267 65.1421 31.0267H64.1271V54.5901H65.1421C65.616 54.5901 66 54.9741 66 55.448V59.1084C66 59.5823 65.616 59.9663 65.1421 59.9663ZM1.71577 58.2505H64.2842V56.3059H1.71577V58.2505ZM59.4945 54.5901H62.4113V31.027H59.4945V54.5901ZM53.8005 54.5901H57.7787V31.027H53.8005V54.5901ZM48.1065 54.5901H52.0847V31.027H48.1065V54.5901ZM42.4129 54.5901H46.1399V31.027H42.4129V54.5901ZM36.7189 54.5901H40.6971V31.027H36.7189V54.5901ZM31.0253 54.5901H35.0032V31.027H31.0253V54.5901ZM25.3313 54.5901H29.3095V31.027H25.3313V54.5901ZM19.6377 54.5901H23.6159V31.027H19.6377V54.5901ZM13.9438 54.5901H17.9216V31.027H13.9438V54.5901ZM8.25013 54.5901H12.2283V31.027H8.25013V54.5901ZM3.61754 54.5901H6.53435V31.027H3.61754V54.5901ZM44.1558 29.3113H46.1399V7.74947H19.6377V29.3109H21.6222V10.609C21.6222 10.1351 22.0062 9.75109 22.4801 9.75109H31.2878C31.7617 9.75109 32.1457 10.1351 32.1457 10.609V29.3109H33.6326V10.609C33.6326 10.1351 34.0166 9.75109 34.4905 9.75109H43.2982C43.7721 9.75109 44.1561 10.1351 44.1561 10.609V29.3113H44.1558ZM35.348 29.3013H42.44V11.4672H35.348V29.3013ZM23.3376 29.3013H30.4296V11.4672H23.3376V29.3013Z"
              fill="#218095"/>
    </symbol>


    <symbol id="services-3" viewBox="0 0 66 66" fill="none" xmlns="http://www.w3.org/2000/svg">
        <g clip-path="url(#clip0)">
            <path d="M64.107 24.0969C62.7892 22.7791 61.2707 22.4353 60.5401 22.2776C59.652 22.0771 58.7207 22.0341 57.8183 22.1487C54.1653 13.6682 44.3956 7.92383 33.0071 7.92383C22.2632 7.92383 12.7657 13.7111 8.8979 22.2776C7.76617 22.0341 6.60584 22.0341 5.47424 22.292C4.74366 22.4495 3.22515 22.7933 1.90729 24.1113C1.66381 24.3548 -0.413382 26.5323 0.0737167 29.6408C0.546446 32.7206 3.21092 34.6403 5.48861 35.1273C6.27654 35.2992 7.0787 35.2848 7.86663 35.1129C7.93821 35.0985 8.00993 35.0843 8.06714 35.0699C8.29638 35.4567 9.02697 37.5051 7.2506 46.3295C7.20763 46.5587 7.222 46.8022 7.29358 47.0314C8.33936 50.3835 10.0296 52.0166 12.7944 52.3318C12.8518 52.3318 12.8947 52.3461 12.952 52.3461V56.6437C12.952 57.4316 13.5966 58.0762 14.3845 58.0762C15.1724 58.0762 15.8171 57.4316 15.8171 56.6437V52.3461H50.1974V56.6437C50.1974 57.4316 50.842 58.0762 51.6299 58.0762C52.4179 58.0762 53.0625 57.4316 53.0625 56.6437V52.3461C53.1198 52.3461 53.1628 52.3461 53.22 52.3318C55.9848 52.0166 57.6895 50.3835 58.7209 47.0314C58.7925 46.8022 58.8068 46.5587 58.7638 46.3295C56.9875 37.4909 57.7181 35.4423 57.9473 35.0699C58.0047 35.0843 58.0762 35.0985 58.1478 35.1129C58.9214 35.2848 59.7379 35.2992 60.5115 35.1273C62.7892 34.6402 65.4536 32.7206 65.9264 29.6408C66.4133 26.5179 64.3363 24.3404 64.107 24.0969ZM33.0071 10.7889C43.1207 10.7889 51.7873 15.7167 55.0821 23.0369C54.595 23.3092 54.1222 23.61 53.6782 23.9394C52.432 24.8133 51.329 25.9019 50.4551 27.1626C49.7819 28.151 49.2518 29.2254 48.8506 30.3571C47.7619 33.3654 47.4468 36.9467 47.3609 39.4393H18.6533C18.5674 36.9467 18.2379 33.3654 17.1635 30.3571C16.7624 29.2254 16.2325 28.151 15.5591 27.1626C14.6852 25.9163 13.5966 24.8133 12.3359 23.9394C12.0781 23.7531 11.8059 23.567 11.5338 23.3951C14.9576 15.8743 23.4237 10.7889 33.0071 10.7889ZM63.1186 29.1966C62.8321 31.0446 61.0558 32.076 59.9384 32.3052C59.523 32.3912 59.1075 32.3768 58.7065 32.2766C58.2194 32.1763 57.5462 32.0474 56.787 32.4056C54.3947 33.48 54.1369 37.577 55.8989 46.5159C54.9964 49.166 53.8647 49.3666 53.0051 49.4668H13.0237C12.1642 49.3665 11.0182 49.166 10.13 46.5159C11.8919 37.577 11.6341 33.48 9.24184 32.4056C8.48266 32.0618 7.80928 32.1907 7.32232 32.2766C6.92117 32.377 6.49142 32.3912 6.0904 32.3052C4.97304 32.0618 3.19668 31.0446 2.91023 29.1966C2.638 27.4633 3.92726 26.131 3.92726 26.1168C4.65785 25.3862 5.54596 25.1857 6.0904 25.071C6.82099 24.8991 7.59454 24.8991 8.32512 25.071C9.27058 25.2859 9.85787 25.7013 10.6888 26.2743C11.6628 26.9619 12.5223 27.8071 13.1957 28.7813C13.7258 29.5692 14.1412 30.4287 14.4564 31.3168C15.6167 34.5686 15.803 38.6942 15.803 40.8573C15.803 41.6453 16.4476 42.2899 17.2355 42.2899H48.7509C49.5388 42.2899 50.1834 41.6453 50.1834 40.8573C50.1834 38.68 50.3697 34.5543 51.53 31.3024C51.8452 30.4143 52.2606 29.5548 52.7907 28.7669C53.4783 27.7928 54.3234 26.9333 55.2976 26.26C56.1141 25.6869 56.7158 25.2715 57.6469 25.0566C58.3918 24.8991 59.151 24.8991 59.896 25.0566C60.4403 25.1712 61.3285 25.3718 62.0591 26.1024C62.0872 26.1312 63.3764 27.4634 63.1186 29.1966Z"
                  fill="#257688"/>
            <path d="M35.6082 32.7147L37.5022 33.0263C38.1211 33.1282 38.6924 33.4217 39.1359 33.8653C39.5794 34.3089 39.8727 34.8804 39.9746 35.4995L40.2865 37.3941C40.3146 37.5633 40.4017 37.7171 40.5325 37.8281C40.6634 37.9391 40.8293 38 41.0008 38C41.1723 38 41.3383 37.9391 41.4691 37.8281C41.5999 37.7171 41.6871 37.5633 41.7151 37.3941L42.027 35.4995C42.1288 34.8805 42.4221 34.3089 42.8655 33.8653C43.3089 33.4217 43.8802 33.1283 44.499 33.0263L46.393 32.7147C46.5625 32.6869 46.7166 32.5998 46.8278 32.4689C46.939 32.338 47 32.1718 47 32C47 31.8282 46.939 31.662 46.8278 31.5311C46.7166 31.4002 46.5625 31.313 46.393 31.2853L44.499 30.9737C43.8802 30.8717 43.3089 30.5783 42.8655 30.1347C42.4221 29.6911 42.1288 29.1195 42.027 28.5005L41.7151 26.6059C41.6871 26.4367 41.5999 26.2829 41.4691 26.1719C41.3383 26.0609 41.1723 26 41.0008 26C40.8293 26 40.6634 26.0609 40.5325 26.1719C40.4017 26.2829 40.3146 26.4367 40.2865 26.6059L39.9746 28.5005C39.8727 29.1197 39.5792 29.6914 39.1354 30.135C38.6917 30.5787 38.1201 30.872 37.501 30.9737L35.607 31.2853C35.4375 31.313 35.2834 31.4002 35.1722 31.5311C35.061 31.662 35 31.8282 35 32C35 32.1718 35.061 32.338 35.1722 32.4689C35.2834 32.5998 35.4375 32.6869 35.607 32.7147H35.6082ZM41.0006 29.9879C41.4332 30.8605 42.1398 31.5673 43.0121 32C42.1398 32.4327 41.4332 33.1395 41.0006 34.0121C40.5684 33.1397 39.8623 32.4329 38.9904 32C39.8623 31.5671 40.5684 30.8603 41.0006 29.9879Z"
                  fill="#257688"/>
            <path d="M18.6082 23.7147L20.5022 24.0263C21.1211 24.1282 21.6924 24.4217 22.1359 24.8653C22.5794 25.3089 22.8727 25.8804 22.9746 26.4995L23.2865 28.3941C23.3146 28.5633 23.4017 28.7171 23.5325 28.8281C23.6634 28.9391 23.8293 29 24.0008 29C24.1723 29 24.3383 28.9391 24.4691 28.8281C24.5999 28.7171 24.6871 28.5633 24.7151 28.3941L25.027 26.4995C25.1288 25.8805 25.4221 25.3089 25.8655 24.8653C26.3089 24.4217 26.8802 24.1283 27.499 24.0263L29.393 23.7147C29.5625 23.6869 29.7166 23.5998 29.8278 23.4689C29.939 23.338 30 23.1718 30 23C30 22.8282 29.939 22.662 29.8278 22.5311C29.7166 22.4002 29.5625 22.313 29.393 22.2853L27.499 21.9737C26.8802 21.8717 26.3089 21.5783 25.8655 21.1347C25.4221 20.6911 25.1288 20.1195 25.027 19.5005L24.7151 17.6059C24.6871 17.4367 24.5999 17.2829 24.4691 17.1719C24.3383 17.0609 24.1723 17 24.0008 17C23.8293 17 23.6634 17.0609 23.5325 17.1719C23.4017 17.2829 23.3146 17.4367 23.2865 17.6059L22.9746 19.5005C22.8727 20.1197 22.5792 20.6914 22.1354 21.135C21.6917 21.5787 21.1201 21.872 20.501 21.9737L18.607 22.2853C18.4375 22.313 18.2834 22.4002 18.1722 22.5311C18.061 22.662 18 22.8282 18 23C18 23.1718 18.061 23.338 18.1722 23.4689C18.2834 23.5998 18.4375 23.6869 18.607 23.7147H18.6082ZM24.0006 20.9879C24.4332 21.8605 25.1398 22.5673 26.0121 23C25.1398 23.4327 24.4332 24.1395 24.0006 25.0121C23.5684 24.1397 22.8623 23.4329 21.9904 23C22.8623 22.5671 23.5684 21.8603 24.0006 20.9879Z"
                  fill="#257688"/>
        </g>
        <defs>
            <clipPath id="clip0">
                <rect width="66" height="66" fill="white"/>
            </clipPath>
        </defs>
    </symbol>

    <symbol id="services-4">
        <path d="M59.8207 25.4716C59.8222 25.2666 59.8238 25.059 59.8255 24.8469C59.8625 20.3056 59.9133 14.0863 57.6087 8.56974C57.4028 8.07705 56.8365 7.84463 56.3438 8.05037C55.8511 8.25624 55.6186 8.82241 55.8244 9.31523C57.5184 13.3702 57.8484 17.9447 57.895 21.842H42.6633C42.7381 15.3076 43.5985 7.05957 50.279 2.14967C51.7696 3.24527 53.048 4.56672 54.0853 6.08476C54.3864 6.52563 54.9879 6.63894 55.4289 6.33755C55.8698 6.03642 55.983 5.4348 55.6817 4.99393C54.3828 3.0929 52.7472 1.46852 50.8203 0.16589C50.4931 -0.0553182 50.0644 -0.0553182 49.7371 0.166019C45.68 2.91063 43.0696 6.85938 41.7566 12.2379C40.8765 15.8428 40.7315 19.4808 40.7237 22.6582H8.42475C7.12611 22.6582 6.06957 23.7148 6.06957 25.0134C6.06957 25.1716 6.08504 25.3272 6.11521 25.4788C5.16889 25.6106 4.29462 26.0435 3.60689 26.7313C2.77195 27.5662 2.31226 28.6765 2.31226 29.8578C2.31226 32.2964 4.2963 34.2804 6.73488 34.2804H10.4629V48.3357C10.4629 48.8696 10.8958 49.3025 11.4298 49.3025H23.3182C23.8521 49.3025 24.285 48.8696 24.285 48.3357V43.6136L27.4619 46.7906L14.9358 59.3167C14.1956 60.056 13.7879 61.0394 13.7879 62.0858C13.7879 63.1321 14.1956 64.1156 14.9358 64.8549C15.6995 65.6176 16.7021 65.999 17.7047 65.999C18.7072 65.999 19.71 65.6175 20.4729 64.8546L24.8906 60.4382C25.2682 60.0606 25.2683 59.4486 24.8907 59.0709C24.5131 58.6933 23.9009 58.6931 23.5234 59.0707L19.1055 63.4873C18.3331 64.2596 17.0756 64.2595 16.3021 63.4869C15.9277 63.1128 15.7214 62.6152 15.7214 62.0858C15.7214 61.5564 15.9277 61.0589 16.3025 60.6843L28.829 48.1579L31.6325 50.9614L26.2291 56.3638C25.8515 56.7412 25.8513 57.3534 26.2289 57.731C26.4176 57.9198 26.6652 58.0142 26.9127 58.0142C27.16 58.0142 27.4074 57.9198 27.5963 57.7311L32.9999 52.3286L45.5259 64.8546C46.2894 65.6182 47.2919 65.9997 48.2948 65.9997C49.2975 65.9997 50.3005 65.6179 51.0638 64.8546C52.5907 63.3278 52.5907 60.8434 51.0638 59.3166L38.538 46.7907L51.0481 34.2806H59.265C60.4463 34.2806 61.5566 33.8208 62.3916 32.9859C63.2273 32.1501 63.6876 31.0391 63.6876 29.858C63.6878 27.6077 61.9979 25.7459 59.8207 25.4716ZM42.6717 25.4355C42.6703 25.2364 42.6687 25.0349 42.667 24.8292C42.6642 24.4864 42.6614 24.1346 42.6594 23.7756H57.8994C57.8974 24.1362 57.8947 24.4891 57.8919 24.8311C57.8902 25.0362 57.8886 25.2371 57.8872 25.4355H42.6717ZM8.42475 24.592H40.7315C40.7321 24.6759 40.7328 24.7619 40.7334 24.8449C40.7351 25.0453 40.7366 25.2412 40.7379 25.4351H8.42475C8.27238 25.4351 8.17118 25.3571 8.12606 25.3122C8.06999 25.2561 8.00321 25.1588 8.00321 25.0135C8.00321 24.7811 8.19232 24.592 8.42475 24.592ZM6.73488 32.3471C5.36251 32.3471 4.2459 31.2304 4.2459 29.8581C4.2459 29.1933 4.50449 28.5685 4.97423 28.0989C5.44475 27.6283 6.06996 27.3691 6.73488 27.3691H10.4629V32.3471H6.73488ZM26.028 34.2807H39.9719L32.9999 41.2526L26.028 34.2807ZM22.3512 40.7891H12.3964V27.3692H22.3512V40.7891ZM12.3964 47.3691V42.7227H22.3512V47.3691H12.3964ZM49.6966 63.4875C48.9235 64.2604 47.666 64.2605 46.8931 63.4875L29.5233 46.1178C29.5198 46.1142 29.5169 46.1102 29.5133 46.1067C29.5097 46.1032 29.5058 46.1001 29.5022 46.0967L24.2848 40.8793V35.2721L36.4869 47.4742C36.487 47.4743 36.487 47.4744 36.4871 47.4744C36.4873 47.4744 36.4874 47.4746 36.4875 47.4747L49.6967 60.6839C50.4697 61.4568 50.4697 62.7146 49.6966 63.4875ZM37.1709 45.4235L34.3672 42.62L42.7065 34.2807H48.3137L37.1709 45.4235ZM61.0245 31.6187C60.5548 32.0885 59.9301 32.3471 59.2653 32.3471H24.2848V27.3691H59.2651C60.6375 27.3691 61.7541 28.4857 61.7541 29.8581C61.7541 30.5229 61.495 31.1481 61.0245 31.6187Z"
              fill="#218095"/>
        <path d="M46.4766 19.2595C47.0105 19.2595 47.4434 18.8267 47.4434 18.2927C47.4434 17.7588 47.0105 17.3259 46.4766 17.3259C45.9426 17.3259 45.5098 17.7588 45.5098 18.2927C45.5098 18.8267 45.9426 19.2595 46.4766 19.2595Z"
              fill="#218095"/>
        <path d="M46.7532 14.5591C47.2871 14.5591 47.72 14.1262 47.72 13.5923C47.72 13.0583 47.2871 12.6255 46.7532 12.6255C46.2192 12.6255 45.7864 13.0583 45.7864 13.5923C45.7864 14.1262 46.2192 14.5591 46.7532 14.5591Z"
              fill="#218095"/>
        <path d="M50.2795 9.67456C50.8135 9.67456 51.2463 9.24171 51.2463 8.70777C51.2463 8.17382 50.8135 7.74097 50.2795 7.74097C49.7456 7.74097 49.3127 8.17382 49.3127 8.70777C49.3127 9.24171 49.7456 9.67456 50.2795 9.67456Z"
              fill="#218095"/>
        <path d="M53.8047 14.5591C54.3386 14.5591 54.7715 14.1262 54.7715 13.5923C54.7715 13.0583 54.3386 12.6255 53.8047 12.6255C53.2707 12.6255 52.8379 13.0583 52.8379 13.5923C52.8379 14.1262 53.2707 14.5591 53.8047 14.5591Z"
              fill="#218095"/>
        <path d="M54.0818 19.2595C54.6157 19.2595 55.0486 18.8267 55.0486 18.2927C55.0486 17.7588 54.6157 17.3259 54.0818 17.3259C53.5478 17.3259 53.115 17.7588 53.115 18.2927C53.115 18.8267 53.5478 19.2595 54.0818 19.2595Z"
              fill="#218095"/>
    </symbol>

    <symbol id="services-5" viewBox="0 0 66 66" fill="none" xmlns="http://www.w3.org/2000/svg">
        <path d="M53.9199 8.55713L59.0753 3.40171L60.5335 4.85989L55.3781 10.0153L53.9199 8.55713Z" fill="#218095"/>
        <path d="M57.75 10.3125H63.9375V12.375H57.75V10.3125Z" fill="#218095"/>
        <path d="M53.9189 14.1396L55.3771 12.6815L60.5326 17.8369L59.0744 19.2951L53.9189 14.1396Z" fill="#218095"/>
        <path d="M1.55103 44.4799L2.57403 46.2701L9.03584 42.5782C9.96087 43.5703 10.6539 44.087 10.7446 44.1519C10.923 44.2798 11.1334 44.3438 11.3438 44.3438C11.5242 44.3438 11.7068 44.2963 11.8687 44.2004L32.2596 32.1513C31.3892 36.2103 30.9375 40.3673 30.9375 44.5201V57.75C30.9375 58.3192 31.3995 58.7812 31.9688 58.7812H49.5C49.96 58.7812 50.3652 58.476 50.4911 58.0336L51.9812 52.8186C52.3875 51.3965 52.5938 49.9249 52.5938 48.4471C52.5938 44.1953 50.9386 40.1992 47.9315 37.1931L43.3125 32.5731V29.7165C44.5098 29.2896 45.375 28.1552 45.375 26.8125C45.375 26.0174 45.0646 25.2986 44.5707 24.75C45.0657 24.2014 45.375 23.4826 45.375 22.6875C45.375 22.0131 45.1523 21.3922 44.7841 20.8838L46.2753 19.8897L47.7397 21.3541L49.1979 19.8959L48.4977 19.1957L50.3982 18.8152C51.6698 18.5615 52.5938 17.4343 52.5938 16.137C52.5938 14.6324 51.3707 13.4083 49.8022 13.4083C49.8012 13.4083 49.8001 13.4083 49.7991 13.4083L49.5598 13.4227L49.7496 13.3753C50.2095 13.2608 50.5313 12.8483 50.5313 12.375V10.3125C50.5313 9.83916 50.2085 9.42666 49.7506 9.31219L45.6256 8.28094L45.6205 8.2995C45.54 8.27888 45.4617 8.25 45.375 8.25H33C32.4308 8.25 31.9688 8.712 31.9688 9.28125V14.4375C31.9688 14.8283 32.1895 15.1852 32.5391 15.3605L33.0526 15.6172L24.3571 21.7037L3.9724 24.7613C3.46709 24.8366 3.09378 25.2708 3.09378 25.7812C3.09378 26.1865 3.12162 26.5629 3.13606 26.9527L1.90578 27.1415L2.21928 29.1803L3.27837 29.0173C3.86721 34.6397 5.89465 38.5388 7.70037 40.9664L1.55103 44.4799ZM33 56.7188V54.6562H49.3113L48.7214 56.7188H33ZM46.4733 38.6502C49.0906 41.2675 50.5313 44.7459 50.5313 48.4471C50.5313 49.7341 50.3518 51.0149 49.9981 52.2524L49.9012 52.5938H33V44.5201C33 40.3714 33.4558 36.2154 34.3561 32.1667L36.9208 20.625H38.9607C38.4657 21.1736 38.1563 21.8924 38.1563 22.6875C38.1563 23.4826 38.4667 24.2014 38.9607 24.75C38.4657 25.2986 38.1563 26.0174 38.1563 26.8125C38.1563 28.5182 39.5443 29.9062 41.25 29.9062V33C41.25 33.2733 41.3583 33.5363 41.5522 33.7291L46.4733 38.6502ZM43.3125 22.6875C43.3125 23.2557 42.8495 23.7188 42.2813 23.7188H41.25C40.6818 23.7188 40.2188 23.2557 40.2188 22.6875C40.2188 22.1193 40.6818 21.6562 41.25 21.6562H42.2813C42.8495 21.6562 43.3125 22.1193 43.3125 22.6875ZM42.2813 27.8438H41.25C40.6818 27.8438 40.2188 27.3807 40.2188 26.8125C40.2188 26.2443 40.6818 25.7812 41.25 25.7812H42.2813C42.8495 25.7812 43.3125 26.2443 43.3125 26.8125C43.3125 27.3807 42.8495 27.8438 42.2813 27.8438ZM42.9052 19.6567C42.7041 19.6154 42.4947 19.5938 42.2813 19.5938H41.4769C41.9719 19.0451 42.2813 18.3263 42.2813 17.5312C42.2813 16.9579 42.1142 16.4278 41.842 15.9668L42.3225 15.9369L44.7872 18.4016L42.9052 19.6567ZM49.863 15.4688C50.2312 15.4688 50.5313 15.7688 50.5313 16.137C50.5313 16.4546 50.3054 16.731 49.994 16.7929L46.7456 17.4426L45.0687 15.7657L49.863 15.4688ZM48.4688 11.5696L46.4063 12.0852V10.6023L48.4688 11.1179V11.5696ZM34.0313 10.3125H44.3438V12.7081L39.8393 14.5097C39.6289 14.4643 39.4113 14.4375 39.1875 14.4375H35.3059L34.0313 13.8002V10.3125ZM24.9027 23.7074C25.0604 23.6837 25.21 23.6239 25.3409 23.5331L35.3874 16.5H39.1875C39.7557 16.5 40.2188 16.963 40.2188 17.5312C40.2188 18.0995 39.7557 18.5625 39.1875 18.5625H35.0625C34.6717 18.5625 34.3149 18.7832 34.1396 19.1328L32.0771 23.2578L33.922 24.1807L34.0942 23.8353L32.8567 29.402L11.4459 42.0544C9.92478 40.6756 5.44296 35.8483 5.16968 26.6681L24.9027 23.7074Z"
              fill="#218095"/>
    </symbol>

    <symbol id="arrow-right" viewBox="0 0 12 20" xmlns="http://www.w3.org/2000/svg">
        <path d="M1.14909 10.3186L9.94499 19.0901C10.2332 19.3773 10.6998 19.3769 10.9875 19.0886C11.2749 18.8005 11.2742 18.3336 10.986 18.0462L2.71364 9.79667L10.9863 1.54721C11.2745 1.25973 11.2752 0.793182 10.9878 0.504957C10.8435 0.360474 10.6546 0.288231 10.4657 0.288231C10.2772 0.288231 10.089 0.359991 9.94503 0.503471L1.14909 9.27482C1.01029 9.41291 0.932404 9.60085 0.932404 9.79667C0.932404 9.99248 1.01052 10.1802 1.14909 10.3186Z"
        />
    </symbol>

    <symbol id="arrow-left" viewBox="0 0 12 20" xmlns="http://www.w3.org/2000/svg">
        <path d="M10.8509 9.68145L2.05501 0.909874C1.76682 0.622653 1.30024 0.623135 1.01254 0.91136C0.725055 1.19955 0.725798 1.66639 1.01402 1.95383L9.28636 10.2033L1.01372 18.4528C0.725537 18.7403 0.724795 19.2068 1.01224 19.495C1.15646 19.6395 1.34541 19.7118 1.53435 19.7118C1.72281 19.7118 1.91101 19.64 2.05497 19.4965L10.8509 10.7252C10.9897 10.5871 11.0676 10.3991 11.0676 10.2033C11.0676 10.0075 10.9895 9.8198 10.8509 9.68145Z"
        />
    </symbol>

    <symbol id="close" viewBox="0 0 15 15" xmlns="http://www.w3.org/2000/svg">
        <g clip-path="url(#clip0)">
            <path d="M0.972146 15.0119C0.723371 15.0119 0.474417 14.9167 0.285077 14.7272C-0.0950258 14.3473 -0.0950258 13.733 0.285077 13.353L13.3408 0.297151C13.7207 -0.0827742 14.335 -0.0827742 14.7149 0.297151C15.095 0.677076 15.095 1.29136 14.7149 1.67129L1.65921 14.7272C1.46863 14.9176 1.22092 15.0119 0.972146 15.0119Z"/>
            <path d="M14.0279 15.0119C13.7791 15.0119 13.5303 14.9167 13.3408 14.7272L0.285077 1.67129C-0.0950258 1.29136 -0.0950258 0.677076 0.285077 0.297151C0.665003 -0.0827742 1.27911 -0.0827742 1.65921 0.297151L14.7149 13.353C15.095 13.733 15.095 14.3473 14.7149 14.7272C14.5254 14.9176 14.2766 15.0119 14.0279 15.0119Z"/>
        </g>
        <defs>
            <clipPath id="clip0">
                <rect width="15" height="15"/>
            </clipPath>
        </defs>
    </symbol>

    <symbol id="check" viewBox="0 0 10 10" fill="none" xmlns="http://www.w3.org/2000/svg">
        <g clip-path="url(#clip0)">
            <path d="M3.8293 8.73574C3.73385 8.83176 3.60361 8.88533 3.46833 8.88533C3.33304 8.88533 3.20281 8.83176 3.10735 8.73574L0.224505 5.85243C-0.0746721 5.55325 -0.0746721 5.06812 0.224505 4.7695L0.58548 4.40843C0.88475 4.10926 1.36932 4.10926 1.6685 4.40843L3.46833 6.20836L8.33173 1.34487C8.63099 1.04569 9.11604 1.04569 9.41474 1.34487L9.77572 1.70593C10.0749 2.00511 10.0749 2.49015 9.77572 2.78886L3.8293 8.73574Z"
                  fill="#218095"/>
        </g>
        <defs>
            <clipPath id="clip0">
                <rect width="10" height="10" fill="white" transform="translate(0.00012207)"/>
            </clipPath>
        </defs>
    </symbol>

    <symbol id="minus" viewBox="0 0 12 1" xmlns="http://www.w3.org/2000/svg">
        <path d="M0 1V0H12V1H0Z"/>
    </symbol>

    <symbol id="plus" viewBox="0 0 10 10" xmlns="http://www.w3.org/2000/svg">
        <path d="M5.6543 4.27539H9.67773V5.62305H5.6543V9.7832H4.29688V5.62305H0.292969V4.27539H4.29688V0.0957031H5.6543V4.27539Z"/>
    </symbol>

    <symbol id="guarantee-1" viewBox="0 0 66 66" fill="none" xmlns="http://www.w3.org/2000/svg">
        <g clip-path="url(#clip0)">
            <path d="M47.4011 12.3994H49.4677V14.466H47.4011V12.3994Z" fill="white"/>
            <path d="M47.4011 16.5326H49.4677V18.5991H47.4011V16.5326Z" fill="white"/>
            <path d="M49.4678 14.4659H51.5343V16.5325H49.4678V14.4659Z" fill="white"/>
            <path d="M53.6008 20.6656H55.6674V22.7322H53.6008V20.6656Z" fill="white"/>
            <path d="M45.3346 14.4659H47.4011V16.5325H45.3346V14.4659Z" fill="white"/>
            <path d="M28.8023 47.5306V45.4641C28.8023 44.8924 28.3392 44.4308 27.7691 44.4308H23.636V46.4973H26.7358V47.5306H28.8023Z"
                  fill="white"/>
            <path d="M25.7026 34.0981H31.9022V32.0316H28.8024V30.9983H26.7359V32.0316H25.7026C23.9938 32.0316 22.6028 33.4225 22.6028 35.1314V37.1979C22.6028 38.9067 23.9938 40.2977 25.7026 40.2977H28.8024V38.2312H25.7026C25.1335 38.2312 24.6693 37.768 24.6693 37.1979V35.1314C24.6693 34.5612 25.1335 34.0981 25.7026 34.0981Z"
                  fill="white"/>
            <path d="M38.0594 38.324L40.1179 38.1384C39.5392 31.7112 34.23 26.8652 27.7691 26.8652C20.9318 26.8652 15.3699 32.4271 15.3699 39.2645C15.3699 46.1018 20.9318 51.6637 27.7691 51.6637C29.324 51.6637 30.8422 51.3796 32.278 50.8186L31.5263 48.8933C30.3306 49.3605 29.0657 49.5971 27.7691 49.5971C22.0715 49.5971 17.4364 44.9621 17.4364 39.2645C17.4364 33.5668 22.0715 28.9318 27.7691 28.9318C33.1534 28.9318 37.5781 32.97 38.0594 38.324Z"
                  fill="white"/>
            <path d="M7.10376 42.3642C7.10376 46.3051 8.20514 49.6551 10.3771 52.3175L11.9785 51.0118C10.1158 48.7273 9.1703 45.8172 9.1703 42.3642C9.1703 35.1924 13.3695 24.161 20.1654 18.5991H35.3728C42.1688 24.1599 46.3679 35.1914 46.3679 42.3642C46.3679 43.0317 46.3316 43.6866 46.2615 44.3142L48.3144 44.5463C48.3941 43.843 48.4345 43.1094 48.4345 42.3642C48.4345 35.0602 44.3398 23.9854 37.6366 17.8221C37.9232 17.4674 38.1018 17.0224 38.1018 16.5325V14.466C38.1018 13.3263 37.175 12.3995 36.0353 12.3995V10.3329C36.0353 9.69722 35.7406 9.13518 35.2881 8.75527L38.1361 1.40636C38.2587 1.08851 38.2173 0.730797 38.0251 0.448767C37.8319 0.168756 37.513 0.000244141 37.172 0.000244141H18.3663C18.0121 0.000244141 17.6821 0.181873 17.4935 0.481561C17.3043 0.78125 17.2816 1.15662 17.4334 1.47699L20.7421 8.44196C20.0136 8.76234 19.503 9.48784 19.503 10.3329V12.3995C18.3633 12.3995 17.4364 13.3263 17.4364 14.466V16.5325C17.4364 17.0224 17.615 17.4674 17.9016 17.8221C11.1985 23.9864 7.10376 35.0612 7.10376 42.3642ZM35.6634 2.06678L33.2609 8.26639H22.9469L20.002 2.06678H35.6634ZM21.5695 10.3329H33.9687L33.9697 12.3995H21.5695V10.3329ZM19.503 14.466H36.0353L36.0363 16.5325H19.503V14.466Z"
                  fill="white"/>
            <path d="M61.5269 48.7021C61.3109 48.5069 61.0229 48.417 60.7302 48.4398L50.7623 49.4372L35.569 39.435C35.4939 39.3855 35.4131 39.3462 35.3284 39.3179L32.2286 38.2847C31.9122 38.1777 31.5661 38.2312 31.2977 38.4264C31.0278 38.6207 30.8689 38.933 30.8689 39.2644V43.3975C30.8689 43.5908 30.9224 43.7789 31.0248 43.9419L35.6331 51.3589L31.6201 53.7302H5.03717C4.46706 53.7302 4.00391 54.1918 4.00391 54.7635V57.8159C4.00391 58.2911 4.32832 58.7053 4.79046 58.8189L25.4558 63.906C25.534 63.9267 25.6158 63.9358 25.6965 63.9358L50.4026 64.0629L60.6434 65.9816C60.7065 65.9942 60.7706 66.0003 60.8337 66.0003C61.0723 66.0003 61.3069 65.9175 61.4941 65.7626C61.7307 65.5664 61.8669 65.2748 61.8669 64.967V49.468C61.8669 49.1764 61.7428 48.8979 61.5269 48.7021ZM59.8004 63.7218L50.6912 62.015C50.6301 62.0024 50.5681 61.9964 50.506 61.9964L25.8307 61.8702L6.07044 57.0056V55.7967H31.9021C32.0873 55.7967 32.2679 55.7473 32.4279 55.653L37.5942 52.6011C37.8333 52.4583 38.0059 52.2277 38.072 51.9573C38.1381 51.6864 38.0927 51.4023 37.9459 51.1657L32.9354 43.1029V40.6988L34.5474 41.2361L49.4677 51.0582V57.8633H51.5342V51.4361L59.8004 50.6097V63.7218Z"
                  fill="white"/>
        </g>
        <defs>
            <clipPath id="clip0">
                <rect width="66" height="66" fill="white" transform="translate(0 0.000244141)"/>
            </clipPath>
        </defs>
    </symbol>

    <symbol id="guarantee-2" viewBox="0 0 66 66" fill="none" xmlns="http://www.w3.org/2000/svg">
        <g clip-path="url(#clip0)">
            <path d="M63.8771 25.9713C63.7469 25.6703 63.4893 25.4432 63.1744 25.3517C62.8595 25.2602 62.5202 25.3139 62.2491 25.4983C58.6988 28.1396 54.576 29.907 50.2151 30.6573C44.3081 31.6143 39.0501 32.7583 34.4961 37.0703C33.3854 38.1365 32.4367 39.3594 31.6801 40.7003C30.6793 38.743 29.3596 36.966 27.7751 35.4423C23.7821 31.7353 19.1621 30.7453 13.9811 29.9423C10.192 29.3113 6.60243 27.8046 3.49805 25.5423C3.22688 25.3579 2.88762 25.3042 2.57275 25.3957C2.25787 25.4872 2.00023 25.7143 1.87005 26.0153C-3.33295 38.1153 2.49705 54.9013 16.2471 59.1803C20.7194 60.4658 25.4528 60.5417 29.9641 59.4003C30.467 59.2762 30.8151 58.818 30.8001 58.3003C30.8001 51.2823 31.4601 46.8603 32.6371 43.7803L32.7031 43.6263C33.4106 41.7427 34.5393 40.0458 36.0031 38.6653C40.0841 34.7823 45.0011 33.7263 50.5451 32.8243C54.7651 32.1136 58.7807 30.4961 62.3151 28.0833C67.5071 42.7793 59.1251 65.1643 35.2001 63.8003C39.014 56.2609 44.6943 49.8233 51.7001 45.1003C52.0456 44.8858 52.2446 44.4983 52.2176 44.0925C52.1905 43.6868 51.9419 43.3291 51.571 43.1623C51.2001 42.9956 50.7675 43.0471 50.4461 43.2963C36.9601 52.5363 32.7251 63.8663 32.5491 64.3393C32.4317 64.6587 32.4688 65.0145 32.6496 65.3029C32.8303 65.5913 33.1344 65.7797 33.4731 65.8133C38.2097 66.315 42.9988 65.8357 47.5421 64.4053C63.0961 59.4553 69.8061 40.0623 63.8771 25.9713ZM28.6001 55.0993C26.9171 52.3603 22.5611 46.5963 13.8381 40.7003C13.3338 40.3601 12.6493 40.493 12.3091 40.9973C11.9688 41.5015 12.1018 42.1861 12.6061 42.5263C23.3421 49.8303 27.2141 56.9693 27.5771 57.6513C8.26105 60.8523 -1.41895 41.8003 3.41005 28.0613C6.49147 30.1102 9.97593 31.4755 13.6291 32.0653C18.6231 32.8573 22.7371 33.7373 26.2681 37.0263C28.0996 38.8015 29.532 40.9464 30.4701 43.3183C29.2321 47.1228 28.601 51.0985 28.6001 55.0993Z"
                  fill="white"/>
            <path d="M32.2191 33.7702C32.4256 33.9785 32.7068 34.0956 33.0001 34.0956C33.2934 34.0956 33.5745 33.9785 33.7811 33.7702L48.4991 18.8872C55.3191 12.0012 50.6001 0.000244141 40.7001 0.000244141C37.794 0.0196639 35.0183 1.20924 33.0001 3.30024C30.9588 1.2229 28.1685 0.0527719 25.2561 0.0527719C22.3436 0.0527719 19.5533 1.2229 17.5121 3.30024C13.2317 7.63576 13.2317 14.6067 17.5121 18.9422L32.2191 33.7702ZM19.0741 4.79625C20.7056 3.13749 22.9349 2.20328 25.2616 2.20328C27.5882 2.20328 29.8175 3.13749 31.4491 4.79625L32.2191 5.56624C32.4256 5.77449 32.7068 5.89162 33.0001 5.89162C33.2934 5.89162 33.5745 5.77449 33.7811 5.56624L34.5621 4.78524C37.0938 2.32086 40.854 1.60963 44.111 2.97908C47.3679 4.34853 49.4901 7.53312 49.5001 11.0662C49.5092 13.4131 48.5876 15.6678 46.9371 17.3362L33.0001 31.4382L19.0741 17.3362C15.6407 13.8613 15.6407 8.27122 19.0741 4.79625Z"
                  fill="white"/>
            <path d="M20.9001 15.5102C21.3128 15.5072 21.6891 15.2734 21.8746 14.9047C22.0601 14.536 22.0236 14.0945 21.7801 13.7612C20.4661 11.9679 20.643 9.48702 22.1981 7.89824C22.4752 7.61921 22.5823 7.21358 22.4792 6.83412C22.3761 6.45467 22.0784 6.15905 21.6982 6.05862C21.3181 5.95819 20.9132 6.06821 20.6361 6.34724C18.3221 8.71161 18.0614 12.4041 20.0201 15.0702C20.2279 15.3472 20.5539 15.5102 20.9001 15.5102Z"
                  fill="white"/>
            <path d="M25.3002 6.60021C25.5963 6.59993 25.8915 6.63314 26.1802 6.69921C26.7877 6.82679 27.3836 6.43772 27.5112 5.83021C27.6388 5.2227 27.2497 4.62679 26.6422 4.49921C26.1988 4.42584 25.7496 4.3927 25.3002 4.40021C24.6927 4.40021 24.2002 4.8927 24.2002 5.50021C24.2002 6.10772 24.6927 6.60021 25.3002 6.60021Z"
                  fill="white"/>
        </g>
        <defs>
            <clipPath id="clip0">
                <rect width="66" height="66" fill="white" transform="translate(0 0.000244141)"/>
            </clipPath>
        </defs>
    </symbol>


    <symbol id="guarantee-3" viewBox="0 0 66 66" fill="none" xmlns="http://www.w3.org/2000/svg">
        <g clip-path="url(#clip0)">
            <path d="M61.3411 34.5512C58.8943 34.0426 55.5797 33.7737 51.7559 33.7737C50.1777 33.7737 48.688 33.8202 47.3086 33.9098V3.54517C47.3086 1.59056 45.7183 0.000244141 43.7637 0.000244141H3.54492C1.4908 0.000244141 0 1.70799 0 4.06079V57.5569C0 58.9577 1.54855 60.5862 3.54492 60.5862H37.5117V62.0686C37.5117 64.2541 41.0182 64.983 42.1706 65.2227C44.6174 65.7313 47.932 66.0002 51.7559 66.0002C55.5797 66.0002 58.8943 65.7313 61.3411 65.2227C62.4935 64.983 66 64.2541 66 62.0686V37.7053C66 35.5198 62.4935 34.7909 61.3411 34.5512ZM64.0664 49.8808C64.0464 49.9223 63.6441 50.6328 60.6244 51.2126C58.3325 51.6526 55.2658 51.8851 51.7559 51.8851C48.2459 51.8851 45.1792 51.6526 42.8874 51.2126C39.7934 50.6186 39.447 49.887 39.4453 49.887V46.1194C40.4572 46.5934 41.6011 46.8318 42.1706 46.9501C44.6174 47.4588 47.932 47.7277 51.7559 47.7277C55.5797 47.7277 58.8943 47.4588 61.3411 46.9501C61.9104 46.8318 63.0545 46.5934 64.0664 46.1194V49.8808ZM24.8789 50.0803C24.3448 50.0803 23.9121 50.5131 23.9121 51.0471V53.4963H9.2168C8.7129 53.4963 8.37891 53.0836 8.37891 52.9163V43.3127H23.9121V46.5354C23.9121 47.0695 24.3448 47.5022 24.8789 47.5022C25.413 47.5022 25.8457 47.0695 25.8457 46.5354V43.3127H37.5117V53.4963H25.8457V51.0471C25.8457 50.5131 25.413 50.0803 24.8789 50.0803ZM41.3789 34.7278C39.8965 35.0914 37.5117 35.9027 37.5117 37.7053V41.3792H25.8457V31.1956H40.541C41.003 31.1956 41.3789 31.5714 41.3789 32.0334V34.7278ZM23.9121 41.3792H8.37891V32.2913C8.37891 31.6359 8.71561 31.1956 9.2168 31.1956H23.9121V41.3792ZM64.0664 43.79C64.0464 43.8315 63.6441 44.542 60.6244 45.1218C58.3325 45.5618 55.2658 45.7943 51.7559 45.7943C48.2459 45.7943 45.1792 45.5618 42.8874 45.1218C39.7934 44.5278 39.447 43.7961 39.4453 43.7961V40.0286C40.4572 40.5026 41.6011 40.7409 42.1706 40.8593C44.6174 41.3681 47.932 41.637 51.7559 41.637C55.5797 41.637 58.8943 41.3681 61.3411 40.8594C61.9104 40.7411 63.0545 40.5027 64.0664 40.0287V43.79ZM60.6244 36.3798C63.5405 36.9396 64.0159 37.6218 64.0632 37.7053C64.0159 37.7889 63.5405 38.471 60.6244 39.0309C58.3325 39.4708 55.2658 39.7034 51.7559 39.7034C48.2459 39.7034 45.1792 39.4708 42.8874 39.0309C39.9712 38.471 39.4958 37.7889 39.4485 37.7053C39.4958 37.6218 39.9712 36.9396 42.8874 36.3798C45.1792 35.9398 48.2459 35.7073 51.7559 35.7073C55.2658 35.7073 58.3325 35.9398 60.6244 36.3798ZM3.54492 58.6526C2.61396 58.6526 1.93359 57.8837 1.93359 57.5569V26.0393H33.7734C34.3075 26.0393 34.7402 25.6066 34.7402 25.0725C34.7402 24.5385 34.3075 24.1057 33.7734 24.1057H1.93359V4.06079C1.93359 2.76876 2.56601 1.93384 3.54492 1.93384H43.7637C44.6522 1.93384 45.375 2.65662 45.375 3.54517V24.1057H38.2852C37.7511 24.1057 37.3184 24.5385 37.3184 25.0725C37.3184 25.6066 37.7511 26.0393 38.2852 26.0393H45.375V34.0712C44.6441 34.1474 43.9556 34.238 43.3125 34.3423V32.0334C43.3125 30.5053 42.0692 29.262 40.541 29.262H9.2168C7.63679 29.262 6.44531 30.5643 6.44531 32.2913V52.9163C6.44531 54.2553 7.74043 55.4299 9.2168 55.4299H37.5117V58.6526H3.54492ZM60.6244 63.3941C58.3325 63.8341 55.2658 64.0667 51.7559 64.0667C48.2459 64.0667 45.1792 63.8341 42.8874 63.3941C39.7934 62.8003 39.447 62.0686 39.4453 62.0686V58.3011C40.4572 58.7751 41.6011 59.0134 42.1706 59.1317C44.6174 59.6404 47.932 59.9093 51.7559 59.9093C53.5983 59.9093 55.3436 59.8455 56.943 59.7194C57.4753 59.6775 57.8728 59.212 57.831 58.6798C57.7891 58.1475 57.3223 57.7499 56.7913 57.7919C55.2421 57.9138 53.548 57.9757 51.7559 57.9757C48.2459 57.9757 45.1792 57.7432 42.8874 57.3032C39.7934 56.7095 39.447 55.9778 39.4453 55.9778V52.2102C40.4572 52.6842 41.6011 52.9226 42.1706 53.0409C44.6174 53.5496 47.932 53.8185 51.7559 53.8185C55.5797 53.8185 58.8943 53.5496 61.3411 53.0409C61.9104 52.9226 63.0545 52.6842 64.0664 52.2102V55.9715C64.0466 56.0127 63.6905 56.642 61.1316 57.1996C60.6099 57.3133 60.2791 57.8284 60.3928 58.35C60.5042 58.8755 61.0349 59.2039 61.5433 59.0888C62.0724 58.9736 63.1197 58.7446 64.0664 58.3018V62.0623C64.0464 62.1039 63.6441 62.8143 60.6244 63.3941Z"
                  fill="white"/>
            <path d="M43.4414 18.1116V7.92798C43.4414 6.39979 42.1981 5.15649 40.6699 5.15649H19.3359C18.8019 5.15649 18.3691 5.58923 18.3691 6.12329C18.3691 6.65735 18.8019 7.09009 19.3359 7.09009H40.6699C41.1319 7.09009 41.5078 7.46598 41.5078 7.92798V18.1116C41.5078 18.5736 41.1319 18.9495 40.6699 18.9495H9.2168C8.7548 18.9495 8.37891 18.5736 8.37891 18.1116V7.92798C8.37891 7.46598 8.7548 7.09009 9.2168 7.09009H14.8242C15.3583 7.09009 15.791 6.65735 15.791 6.12329C15.791 5.58923 15.3583 5.15649 14.8242 5.15649H9.2168C7.68861 5.15649 6.44531 6.39979 6.44531 7.92798V18.1116C6.44531 19.6398 7.68861 20.8831 9.2168 20.8831H40.6699C42.1981 20.8831 43.4414 19.6398 43.4414 18.1116Z"
                  fill="white"/>
            <path d="M20.3027 47.4377H13.3418C12.8077 47.4377 12.375 47.8705 12.375 48.4045C12.375 48.9386 12.8077 49.3713 13.3418 49.3713H20.3027C20.8368 49.3713 21.2695 48.9386 21.2695 48.4045C21.2695 47.8705 20.8368 47.4377 20.3027 47.4377Z"
                  fill="white"/>
            <path d="M13.9863 37.2542H15.8555V39.1233C15.8555 39.6573 16.2882 40.0901 16.8223 40.0901C17.3563 40.0901 17.7891 39.6573 17.7891 39.1233V37.2542H19.6582C20.1923 37.2542 20.625 36.8214 20.625 36.2874C20.625 35.7533 20.1923 35.3206 19.6582 35.3206H17.7891V33.4514C17.7891 32.9174 17.3563 32.4846 16.8223 32.4846C16.2882 32.4846 15.8555 32.9174 15.8555 33.4514V35.3206H13.9863C13.4523 35.3206 13.0195 35.7533 13.0195 36.2874C13.0195 36.8214 13.4523 37.2542 13.9863 37.2542Z"
                  fill="white"/>
            <path d="M35.689 33.5984C35.3113 33.2209 34.6992 33.2209 34.3217 33.5984L33 34.9201L31.6783 33.5984C31.3006 33.2209 30.6886 33.2209 30.311 33.5984C29.9334 33.9761 29.9334 34.5881 30.311 34.9657L31.6327 36.2874L30.311 37.609C29.9334 37.9867 29.9334 38.5988 30.311 38.9763C30.6887 39.3538 31.3006 39.3538 31.6783 38.9763L33 37.6547L34.3217 38.9763C34.6994 39.3538 35.3113 39.3538 35.689 38.9763C36.0665 38.5987 36.0665 37.9866 35.689 37.609L34.3673 36.2874L35.689 34.9657C36.0665 34.588 36.0665 33.976 35.689 33.5984Z"
                  fill="white"/>
            <path d="M30.8274 51.5815C31.0747 51.5815 31.3222 51.4872 31.5111 51.2985L35.8939 46.9156C36.2715 46.538 36.2715 45.9259 35.8939 45.5483C35.5162 45.1709 34.9041 45.1709 34.5266 45.5483L30.1438 49.9311C29.7662 50.3088 29.7662 50.9209 30.1438 51.2985C30.3326 51.4872 30.5801 51.5815 30.8274 51.5815Z"
                  fill="white"/>
            <path d="M31.1309 46.9221C31.6648 46.9221 32.0977 46.4893 32.0977 45.9553C32.0977 45.4214 31.6648 44.9885 31.1309 44.9885C30.5969 44.9885 30.1641 45.4214 30.1641 45.9553C30.1641 46.4893 30.5969 46.9221 31.1309 46.9221Z"
                  fill="white"/>
            <path d="M34.998 51.8206C35.532 51.8206 35.9648 51.3877 35.9648 50.8538C35.9648 50.3198 35.532 49.887 34.998 49.887C34.4641 49.887 34.0312 50.3198 34.0312 50.8538C34.0312 51.3877 34.4641 51.8206 34.998 51.8206Z"
                  fill="white"/>
            <path d="M37.4473 17.1448C38.6911 17.1448 39.7031 16.1327 39.7031 14.8889V11.1506C39.7031 9.90682 38.6911 8.89478 37.4473 8.89478H35.6426C34.3988 8.89478 33.3867 9.90682 33.3867 11.1506V14.8889C33.3867 16.1327 34.3988 17.1448 35.6426 17.1448H37.4473ZM35.3203 14.8889V11.1506C35.3203 10.9729 35.4648 10.8284 35.6426 10.8284H37.4473C37.625 10.8284 37.7695 10.9729 37.7695 11.1506V14.8889C37.7695 15.0667 37.625 15.2112 37.4473 15.2112H35.6426C35.4648 15.2112 35.3203 15.0667 35.3203 14.8889Z"
                  fill="white"/>
        </g>
        <defs>
            <clipPath id="clip0">
                <rect width="66" height="66" fill="white" transform="translate(0 0.000244141)"/>
            </clipPath>
        </defs>
    </symbol>

    <symbol id="icon-tg" viewBox="0 0 25 25" fill="none" xmlns="http://www.w3.org/2000/svg">
        <g clip-path="url(#clip0)">
            <path d="M12.4999 25.0002C19.4033 25.0002 24.9997 19.4038 24.9997 12.5003C24.9997 5.59686 19.4033 0.000488281 12.4999 0.000488281C5.59637 0.000488281 0 5.59686 0 12.5003C0 19.4038 5.59637 25.0002 12.4999 25.0002Z"
                  fill="#41B4E6"/>
            <path d="M25.0001 12.5004C25.0001 12.1958 24.9887 11.894 24.9673 11.5948L19.7867 6.41431L5.21362 12.1467L10.7894 17.7225L10.8625 17.9857L10.9572 17.8903L10.9576 17.8907L10.8625 17.9857L17.0303 24.1536C21.6944 22.3391 25.0001 17.8061 25.0001 12.5004Z"
                  fill="#0091C8"/>
            <path d="M11.286 14.3215L16.935 18.5865L19.7865 6.41431L5.21338 12.1467L9.6478 13.6155L17.7407 8.18697L11.286 14.3215Z"
                  fill="white"/>
            <path d="M9.64795 13.6155L10.8625 17.9858L11.2861 14.3216L17.7409 8.18701L9.64795 13.6155Z" fill="#D2D2D7"/>
            <path d="M13.1219 15.7077L10.8623 17.9858L11.286 14.3215L13.1219 15.7077Z" fill="#B9B9BE"/>
        </g>
        <defs>
            <clipPath id="clip0">
                <rect width="25" height="25" fill="white" transform="translate(0 0.000244141)"/>
            </clipPath>
        </defs>
    </symbol>

    <symbol id="icon-wt" viewBox="0 0 25 25" fill="none" xmlns="http://www.w3.org/2000/svg">
        <g clip-path="url(#clip0)">
            <path d="M12.5031 0.000244141H12.4969C5.60469 0.000244141 0 5.60649 0 12.5002C0 15.2346 0.88125 17.769 2.37969 19.8268L0.821875 24.4706L5.62656 22.9346C7.60313 24.244 9.96094 25.0002 12.5031 25.0002C19.3953 25.0002 25 19.3924 25 12.5002C25 5.60806 19.3953 0.000244141 12.5031 0.000244141Z"
                  fill="#4CAF50"/>
            <path d="M19.7765 17.6519C19.4749 18.5035 18.2781 19.2097 17.3234 19.416C16.6702 19.555 15.8171 19.666 12.9452 18.4753C9.2718 16.9535 6.90618 13.2207 6.7218 12.9785C6.54524 12.7363 5.23743 11.0019 5.23743 9.20815C5.23743 7.4144 6.14836 6.54097 6.51555 6.16597C6.81711 5.85815 7.31555 5.71753 7.79368 5.71753C7.94836 5.71753 8.08743 5.72534 8.21243 5.73159C8.57961 5.74722 8.76399 5.76909 9.00618 6.34878C9.30774 7.07534 10.0421 8.86909 10.1296 9.05347C10.2187 9.23784 10.3077 9.48784 10.1827 9.73003C10.0656 9.98003 9.96243 10.091 9.77805 10.3035C9.59368 10.516 9.41868 10.6785 9.2343 10.9066C9.06555 11.105 8.87493 11.3175 9.08743 11.6847C9.29993 12.0441 10.0343 13.2425 11.1156 14.205C12.5109 15.4472 13.6421 15.8441 14.0468 16.0128C14.3484 16.1378 14.7077 16.1082 14.9281 15.8738C15.2077 15.5722 15.5531 15.0722 15.9046 14.58C16.1546 14.2269 16.4702 14.1832 16.8015 14.3082C17.139 14.4253 18.9249 15.3082 19.2921 15.491C19.6593 15.6753 19.9015 15.7628 19.9906 15.9175C20.078 16.0722 20.078 16.7988 19.7765 17.6519Z"
                  fill="#FAFAFA"/>
        </g>
        <defs>
            <clipPath id="clip0">
                <rect width="25" height="25" fill="white" transform="translate(0 0.000244141)"/>
            </clipPath>
        </defs>
    </symbol>

    <symbol id="arrow-down" viewBox="0 0 20 11" fill="none" xmlns="http://www.w3.org/2000/svg">
        <path d="M10.0302 10.4278L18.8018 1.63191C19.089 1.34373 19.0885 0.877145 18.8003 0.589441C18.5121 0.301959 18.0453 0.302702 17.7578 0.590926L9.50834 8.86327L1.25888 0.590628C0.971397 0.302441 0.504852 0.301698 0.216627 0.589142C0.0721435 0.733366 -9.92061e-05 0.922309 -9.92144e-05 1.11125C-9.92226e-05 1.29971 0.0716609 1.48791 0.215141 1.63188L8.98649 10.4278C9.12458 10.5666 9.31252 10.6445 9.50834 10.6445C9.70415 10.6445 9.89187 10.5664 10.0302 10.4278Z"
              fill="#218095"/>
    </symbol>

    <symbol id="mark" viewBox="0 0 28 28" fill="none" xmlns="http://www.w3.org/2000/svg">
        <path d="M14 0C8.57216 0 4.15625 4.41591 4.15625 9.84375C4.15625 11.6776 4.66424 13.4673 5.62565 15.02L13.4397 27.6122C13.5894 27.8534 13.8531 28 14.1367 28C14.1389 28 14.141 28 14.1432 28C14.4292 27.9978 14.6935 27.8467 14.8404 27.6012L22.4553 14.887C23.3636 13.3672 23.8438 11.6232 23.8438 9.84375C23.8438 4.41591 19.4278 0 14 0ZM21.0474 14.0447L14.1243 25.6039L7.02007 14.1556C6.21983 12.8633 5.78594 11.3723 5.78594 9.84375C5.78594 5.32055 9.4768 1.62969 14 1.62969C18.5232 1.62969 22.2086 5.32055 22.2086 9.84375C22.2086 11.3269 21.8033 12.7798 21.0474 14.0447Z"
              fill="white"/>
        <path d="M14 4.92188C11.2861 4.92188 9.07812 7.12983 9.07812 9.84375C9.07812 12.5403 11.2501 14.7656 14 14.7656C16.7838 14.7656 18.9219 12.5107 18.9219 9.84375C18.9219 7.12983 16.7139 4.92188 14 4.92188ZM14 13.1359C12.1813 13.1359 10.7078 11.6576 10.7078 9.84375C10.7078 8.03447 12.1907 6.55156 14 6.55156C15.8093 6.55156 17.2867 8.03447 17.2867 9.84375C17.2867 11.6311 15.8476 13.1359 14 13.1359Z"
              fill="white"/>
    </symbol>


    <symbol id="phone-map" viewBox="0 0 23 23" fill="none" xmlns="http://www.w3.org/2000/svg">
        <g clip-path="url(#clip0)">
            <path d="M16.5305 22.999C15.7881 22.999 15.0519 22.8678 14.3321 22.6062C11.1608 21.4542 8.2172 19.5779 5.81937 17.1801C3.42153 14.7823 1.54522 11.8387 0.393249 8.66742C0.0230635 7.64828 -0.0861821 6.59625 0.0686573 5.54045C0.213704 4.55149 0.596782 3.59141 1.17652 2.76399C1.75882 1.93292 2.53513 1.24169 3.42149 0.765045C4.3667 0.256775 5.39838 -0.000976562 6.48796 -0.000976562C6.82683 -0.000976562 7.11971 0.235797 7.19073 0.567127L8.31885 5.83171C8.36993 6.0701 8.29666 6.31815 8.1243 6.49055L6.19665 8.41816C8.0151 12.0336 10.9658 14.9843 14.5812 16.8028L16.5089 14.8751C16.6813 14.7027 16.9293 14.6296 17.1677 14.6806L22.4323 15.8087C22.7637 15.8797 23.0004 16.1726 23.0004 16.5114C23.0004 17.601 22.7426 18.6328 22.2343 19.578C21.7577 20.4643 21.0664 21.2406 20.2354 21.8229C19.408 22.4027 18.4479 22.7857 17.4589 22.9308C17.149 22.9763 16.8391 22.999 16.5305 22.999ZM5.9137 1.46791C4.47648 1.62657 3.20084 2.37988 2.35374 3.5889C1.40117 4.9484 1.17904 6.62055 1.74431 8.17667C3.95905 14.2735 8.72601 19.0404 14.8228 21.2552C16.3789 21.8205 18.051 21.5984 19.4106 20.6458C20.6196 19.7987 21.3729 18.523 21.5316 17.0858L17.2489 16.1681L15.2357 18.1812C15.0215 18.3954 14.696 18.4524 14.4219 18.3235C10.146 16.3147 6.68479 12.8535 4.67597 8.57758C4.54718 8.30344 4.60405 7.97794 4.81828 7.76377L6.83141 5.75063L5.9137 1.46791Z"
                  fill="white"/>
        </g>
        <defs>
            <clipPath id="clip0">
                <rect width="23" height="23" fill="white" transform="translate(0 -0.000976562)"/>
            </clipPath>
        </defs>
    </symbol>


</svg>