<svg display="none" xmlns="http://www.w3.org/2000/svg">
    <symbol id="tel-1" viewBox="0 0 23 23" xmlns="http://www.w3.org/2000/svg">
        <g clip-path="url(#clip0)">
            <path d="M16.5305 23C15.7881 23 15.0519 22.8687 14.3321 22.6072C11.1608 21.4552 8.2172 19.5789 5.81937 17.1811C3.42153 14.7833 1.54522 11.8397 0.393249 8.6684C0.0230635 7.64925 -0.0861821 6.59723 0.0686573 5.54143C0.213704 4.55247 0.596782 3.59239 1.17652 2.76496C1.75882 1.9339 2.53513 1.24267 3.42149 0.766021C4.3667 0.257751 5.39838 0 6.48796 0C6.82683 0 7.11971 0.236774 7.19073 0.568104L8.31885 5.83269C8.36993 6.07108 8.29666 6.31913 8.1243 6.49153L6.19665 8.41914C8.0151 12.0346 10.9658 14.9853 14.5812 16.8037L16.5089 14.8761C16.6813 14.7037 16.9293 14.6305 17.1677 14.6815L22.4323 15.8097C22.7637 15.8807 23.0004 16.1735 23.0004 16.5124C23.0004 17.602 22.7426 18.6337 22.2343 19.5789C21.7577 20.4653 21.0664 21.2416 20.2354 21.8239C19.408 22.4036 18.4479 22.7867 17.4589 22.9318C17.149 22.9773 16.8391 23 16.5305 23ZM5.9137 1.46889C4.47648 1.62754 3.20084 2.38085 2.35374 3.58987C1.40117 4.94938 1.17904 6.62153 1.74431 8.17765C3.95905 14.2745 8.72601 19.0414 14.8228 21.2562C16.3789 21.8214 18.051 21.5993 19.4106 20.6467C20.6196 19.7996 21.3729 18.524 21.5316 17.0868L17.2489 16.1691L15.2357 18.1822C15.0215 18.3964 14.696 18.4533 14.4219 18.3245C10.146 16.3157 6.68479 12.8545 4.67597 8.57856C4.54718 8.30441 4.60405 7.97892 4.81828 7.76474L6.83141 5.75161L5.9137 1.46889Z"/>
        </g>
        <defs>
            <clipPath id="clip0">
                <rect width="23" height="23"/>
            </clipPath>
        </defs>
    </symbol>


    <symbol id="services-0" viewBox="0 0 66 66" fill="none" xmlns="http://www.w3.org/2000/svg">
        <path d="M62.9062 56.7188H57.75V11.3438C58.5698 11.3413 59.3552 11.0146 59.9349 10.4349C60.5146 9.85525 60.8413 9.06976 60.8438 8.25V3.09375C60.8438 2.82025 60.7351 2.55794 60.5417 2.36455C60.3483 2.17115 60.086 2.0625 59.8125 2.0625H6.1875C5.914 2.0625 5.65169 2.17115 5.4583 2.36455C5.2649 2.55794 5.15625 2.82025 5.15625 3.09375V8.25C5.1587 9.06976 5.48543 9.85525 6.06509 10.4349C6.64475 11.0146 7.43024 11.3413 8.25 11.3438V56.7188H3.09375C2.82025 56.7188 2.55794 56.8274 2.36455 57.0208C2.17115 57.2142 2.0625 57.4765 2.0625 57.75V62.9062C2.0625 63.1798 2.17115 63.4421 2.36455 63.6355C2.55794 63.8289 2.82025 63.9375 3.09375 63.9375H62.9062C63.1798 63.9375 63.4421 63.8289 63.6355 63.6355C63.8289 63.4421 63.9375 63.1798 63.9375 62.9062V57.75C63.9375 57.4765 63.8289 57.2142 63.6355 57.0208C63.4421 56.8274 63.1798 56.7188 62.9062 56.7188ZM7.21875 8.25V4.125H58.7812V8.25C58.7812 8.5235 58.6726 8.78581 58.4792 8.9792C58.2858 9.1726 58.0235 9.28125 57.75 9.28125H8.25C7.9765 9.28125 7.71419 9.1726 7.5208 8.9792C7.3274 8.78581 7.21875 8.5235 7.21875 8.25ZM55.6875 11.3438V56.7188H10.3125V11.3438H55.6875ZM61.875 61.875H4.125V58.7812H61.875V61.875Z"
              fill="#218095"/>
        <path d="M53.625 12.375H12.375C12.1015 12.375 11.8392 12.4836 11.6458 12.677C11.4524 12.8704 11.3438 13.1327 11.3438 13.4062V54.6562C11.3438 54.9298 11.4524 55.1921 11.6458 55.3855C11.8392 55.5788 12.1015 55.6875 12.375 55.6875H53.625C53.8985 55.6875 54.1608 55.5788 54.3542 55.3855C54.5476 55.1921 54.6562 54.9298 54.6562 54.6562V13.4062C54.6562 13.1327 54.5476 12.8704 54.3542 12.677C54.1608 12.4836 53.8985 12.375 53.625 12.375ZM31.9688 53.625H13.4062V34.0312H31.9688V53.625ZM31.9688 31.9688H13.4062V14.4375H31.9688V31.9688ZM52.5938 53.625H34.0312V34.0312H52.5938V53.625ZM52.5938 31.9688H34.0312V14.4375H52.5938V31.9688Z"
              fill="#218095"/>
    </symbol>

    <symbol id="services-1" viewBox="0 0 66 66" fill="none" xmlns="http://www.w3.org/2000/svg">
        <path d="M47.925 0H18.0607C15.621 0 13.6262 1.98043 13.6262 4.42004V61.5797C13.6262 64.0337 15.621 66.0141 18.0607 65.9997H47.9249C50.3789 65.9997 52.3593 64.0193 52.3737 61.5797V4.42004C52.3737 1.98043 50.379 0 47.925 0ZM49.5036 61.5941C49.5036 62.4551 48.8003 63.144 47.925 63.144H18.0607C17.1996 63.144 16.4964 62.4551 16.4964 61.5941V27.2668H49.5034V61.5941H49.5036ZM49.5036 24.3965H16.4965V4.42004C16.4965 3.55898 17.1997 2.87014 18.0608 2.87014H47.925C48.7861 2.87014 49.4893 3.55898 49.5036 4.42004V24.3965Z"
              fill="#218095"/>
        <path d="M45.1983 11.4807C44.409 11.4807 43.7632 12.1265 43.7632 12.9159V18.6563C43.7632 19.4456 44.409 20.0914 45.1983 20.0914C45.9877 20.0914 46.6335 19.4456 46.6335 18.6563V12.9159C46.6335 12.1265 45.9877 11.4807 45.1983 11.4807Z"
              fill="#218095"/>
        <path d="M45.1983 40.1826C45.9877 40.1826 46.6335 39.5369 46.6335 38.7475V31.5721C46.6335 30.7828 45.9877 30.137 45.1983 30.137C44.409 30.137 43.7632 30.7828 43.7632 31.5721V38.7475C43.7632 39.5369 44.409 40.1826 45.1983 40.1826Z"
              fill="#218095"/>
    </symbol>

    <symbol id="services-2" viewBox="0 0 66 66" fill="none" xmlns="http://www.w3.org/2000/svg">
        <path d="M65.1421 59.9663H0.857887C0.38399 59.9663 0 59.5823 0 59.1084V55.448C0 54.9741 0.38399 54.5901 0.857887 54.5901H1.90176V31.027H0.857887C0.38399 31.027 0 30.643 0 30.1691C0 29.6952 0.38399 29.3113 0.857887 29.3113H17.9219V6.89158C17.9219 6.41768 18.3059 6.03369 18.7798 6.03369H46.9978C47.4717 6.03369 47.8557 6.41768 47.8557 6.89158V29.3109H65.1421C65.616 29.3109 66 29.6949 66 30.1688C66 30.6427 65.616 31.0267 65.1421 31.0267H64.1271V54.5901H65.1421C65.616 54.5901 66 54.9741 66 55.448V59.1084C66 59.5823 65.616 59.9663 65.1421 59.9663ZM1.71577 58.2505H64.2842V56.3059H1.71577V58.2505ZM59.4945 54.5901H62.4113V31.027H59.4945V54.5901ZM53.8005 54.5901H57.7787V31.027H53.8005V54.5901ZM48.1065 54.5901H52.0847V31.027H48.1065V54.5901ZM42.4129 54.5901H46.1399V31.027H42.4129V54.5901ZM36.7189 54.5901H40.6971V31.027H36.7189V54.5901ZM31.0253 54.5901H35.0032V31.027H31.0253V54.5901ZM25.3313 54.5901H29.3095V31.027H25.3313V54.5901ZM19.6377 54.5901H23.6159V31.027H19.6377V54.5901ZM13.9438 54.5901H17.9216V31.027H13.9438V54.5901ZM8.25013 54.5901H12.2283V31.027H8.25013V54.5901ZM3.61754 54.5901H6.53435V31.027H3.61754V54.5901ZM44.1558 29.3113H46.1399V7.74947H19.6377V29.3109H21.6222V10.609C21.6222 10.1351 22.0062 9.75109 22.4801 9.75109H31.2878C31.7617 9.75109 32.1457 10.1351 32.1457 10.609V29.3109H33.6326V10.609C33.6326 10.1351 34.0166 9.75109 34.4905 9.75109H43.2982C43.7721 9.75109 44.1561 10.1351 44.1561 10.609V29.3113H44.1558ZM35.348 29.3013H42.44V11.4672H35.348V29.3013ZM23.3376 29.3013H30.4296V11.4672H23.3376V29.3013Z"
              fill="#218095"/>
    </symbol>


    <symbol id="services-3" viewBox="0 0 66 66" fill="none" xmlns="http://www.w3.org/2000/svg">
        <g clip-path="url(#clip0)">
            <path d="M64.107 24.0969C62.7892 22.7791 61.2707 22.4353 60.5401 22.2776C59.652 22.0771 58.7207 22.0341 57.8183 22.1487C54.1653 13.6682 44.3956 7.92383 33.0071 7.92383C22.2632 7.92383 12.7657 13.7111 8.8979 22.2776C7.76617 22.0341 6.60584 22.0341 5.47424 22.292C4.74366 22.4495 3.22515 22.7933 1.90729 24.1113C1.66381 24.3548 -0.413382 26.5323 0.0737167 29.6408C0.546446 32.7206 3.21092 34.6403 5.48861 35.1273C6.27654 35.2992 7.0787 35.2848 7.86663 35.1129C7.93821 35.0985 8.00993 35.0843 8.06714 35.0699C8.29638 35.4567 9.02697 37.5051 7.2506 46.3295C7.20763 46.5587 7.222 46.8022 7.29358 47.0314C8.33936 50.3835 10.0296 52.0166 12.7944 52.3318C12.8518 52.3318 12.8947 52.3461 12.952 52.3461V56.6437C12.952 57.4316 13.5966 58.0762 14.3845 58.0762C15.1724 58.0762 15.8171 57.4316 15.8171 56.6437V52.3461H50.1974V56.6437C50.1974 57.4316 50.842 58.0762 51.6299 58.0762C52.4179 58.0762 53.0625 57.4316 53.0625 56.6437V52.3461C53.1198 52.3461 53.1628 52.3461 53.22 52.3318C55.9848 52.0166 57.6895 50.3835 58.7209 47.0314C58.7925 46.8022 58.8068 46.5587 58.7638 46.3295C56.9875 37.4909 57.7181 35.4423 57.9473 35.0699C58.0047 35.0843 58.0762 35.0985 58.1478 35.1129C58.9214 35.2848 59.7379 35.2992 60.5115 35.1273C62.7892 34.6402 65.4536 32.7206 65.9264 29.6408C66.4133 26.5179 64.3363 24.3404 64.107 24.0969ZM33.0071 10.7889C43.1207 10.7889 51.7873 15.7167 55.0821 23.0369C54.595 23.3092 54.1222 23.61 53.6782 23.9394C52.432 24.8133 51.329 25.9019 50.4551 27.1626C49.7819 28.151 49.2518 29.2254 48.8506 30.3571C47.7619 33.3654 47.4468 36.9467 47.3609 39.4393H18.6533C18.5674 36.9467 18.2379 33.3654 17.1635 30.3571C16.7624 29.2254 16.2325 28.151 15.5591 27.1626C14.6852 25.9163 13.5966 24.8133 12.3359 23.9394C12.0781 23.7531 11.8059 23.567 11.5338 23.3951C14.9576 15.8743 23.4237 10.7889 33.0071 10.7889ZM63.1186 29.1966C62.8321 31.0446 61.0558 32.076 59.9384 32.3052C59.523 32.3912 59.1075 32.3768 58.7065 32.2766C58.2194 32.1763 57.5462 32.0474 56.787 32.4056C54.3947 33.48 54.1369 37.577 55.8989 46.5159C54.9964 49.166 53.8647 49.3666 53.0051 49.4668H13.0237C12.1642 49.3665 11.0182 49.166 10.13 46.5159C11.8919 37.577 11.6341 33.48 9.24184 32.4056C8.48266 32.0618 7.80928 32.1907 7.32232 32.2766C6.92117 32.377 6.49142 32.3912 6.0904 32.3052C4.97304 32.0618 3.19668 31.0446 2.91023 29.1966C2.638 27.4633 3.92726 26.131 3.92726 26.1168C4.65785 25.3862 5.54596 25.1857 6.0904 25.071C6.82099 24.8991 7.59454 24.8991 8.32512 25.071C9.27058 25.2859 9.85787 25.7013 10.6888 26.2743C11.6628 26.9619 12.5223 27.8071 13.1957 28.7813C13.7258 29.5692 14.1412 30.4287 14.4564 31.3168C15.6167 34.5686 15.803 38.6942 15.803 40.8573C15.803 41.6453 16.4476 42.2899 17.2355 42.2899H48.7509C49.5388 42.2899 50.1834 41.6453 50.1834 40.8573C50.1834 38.68 50.3697 34.5543 51.53 31.3024C51.8452 30.4143 52.2606 29.5548 52.7907 28.7669C53.4783 27.7928 54.3234 26.9333 55.2976 26.26C56.1141 25.6869 56.7158 25.2715 57.6469 25.0566C58.3918 24.8991 59.151 24.8991 59.896 25.0566C60.4403 25.1712 61.3285 25.3718 62.0591 26.1024C62.0872 26.1312 63.3764 27.4634 63.1186 29.1966Z"
                  fill="#257688"/>
            <path d="M35.6082 32.7147L37.5022 33.0263C38.1211 33.1282 38.6924 33.4217 39.1359 33.8653C39.5794 34.3089 39.8727 34.8804 39.9746 35.4995L40.2865 37.3941C40.3146 37.5633 40.4017 37.7171 40.5325 37.8281C40.6634 37.9391 40.8293 38 41.0008 38C41.1723 38 41.3383 37.9391 41.4691 37.8281C41.5999 37.7171 41.6871 37.5633 41.7151 37.3941L42.027 35.4995C42.1288 34.8805 42.4221 34.3089 42.8655 33.8653C43.3089 33.4217 43.8802 33.1283 44.499 33.0263L46.393 32.7147C46.5625 32.6869 46.7166 32.5998 46.8278 32.4689C46.939 32.338 47 32.1718 47 32C47 31.8282 46.939 31.662 46.8278 31.5311C46.7166 31.4002 46.5625 31.313 46.393 31.2853L44.499 30.9737C43.8802 30.8717 43.3089 30.5783 42.8655 30.1347C42.4221 29.6911 42.1288 29.1195 42.027 28.5005L41.7151 26.6059C41.6871 26.4367 41.5999 26.2829 41.4691 26.1719C41.3383 26.0609 41.1723 26 41.0008 26C40.8293 26 40.6634 26.0609 40.5325 26.1719C40.4017 26.2829 40.3146 26.4367 40.2865 26.6059L39.9746 28.5005C39.8727 29.1197 39.5792 29.6914 39.1354 30.135C38.6917 30.5787 38.1201 30.872 37.501 30.9737L35.607 31.2853C35.4375 31.313 35.2834 31.4002 35.1722 31.5311C35.061 31.662 35 31.8282 35 32C35 32.1718 35.061 32.338 35.1722 32.4689C35.2834 32.5998 35.4375 32.6869 35.607 32.7147H35.6082ZM41.0006 29.9879C41.4332 30.8605 42.1398 31.5673 43.0121 32C42.1398 32.4327 41.4332 33.1395 41.0006 34.0121C40.5684 33.1397 39.8623 32.4329 38.9904 32C39.8623 31.5671 40.5684 30.8603 41.0006 29.9879Z"
                  fill="#257688"/>
            <path d="M18.6082 23.7147L20.5022 24.0263C21.1211 24.1282 21.6924 24.4217 22.1359 24.8653C22.5794 25.3089 22.8727 25.8804 22.9746 26.4995L23.2865 28.3941C23.3146 28.5633 23.4017 28.7171 23.5325 28.8281C23.6634 28.9391 23.8293 29 24.0008 29C24.1723 29 24.3383 28.9391 24.4691 28.8281C24.5999 28.7171 24.6871 28.5633 24.7151 28.3941L25.027 26.4995C25.1288 25.8805 25.4221 25.3089 25.8655 24.8653C26.3089 24.4217 26.8802 24.1283 27.499 24.0263L29.393 23.7147C29.5625 23.6869 29.7166 23.5998 29.8278 23.4689C29.939 23.338 30 23.1718 30 23C30 22.8282 29.939 22.662 29.8278 22.5311C29.7166 22.4002 29.5625 22.313 29.393 22.2853L27.499 21.9737C26.8802 21.8717 26.3089 21.5783 25.8655 21.1347C25.4221 20.6911 25.1288 20.1195 25.027 19.5005L24.7151 17.6059C24.6871 17.4367 24.5999 17.2829 24.4691 17.1719C24.3383 17.0609 24.1723 17 24.0008 17C23.8293 17 23.6634 17.0609 23.5325 17.1719C23.4017 17.2829 23.3146 17.4367 23.2865 17.6059L22.9746 19.5005C22.8727 20.1197 22.5792 20.6914 22.1354 21.135C21.6917 21.5787 21.1201 21.872 20.501 21.9737L18.607 22.2853C18.4375 22.313 18.2834 22.4002 18.1722 22.5311C18.061 22.662 18 22.8282 18 23C18 23.1718 18.061 23.338 18.1722 23.4689C18.2834 23.5998 18.4375 23.6869 18.607 23.7147H18.6082ZM24.0006 20.9879C24.4332 21.8605 25.1398 22.5673 26.0121 23C25.1398 23.4327 24.4332 24.1395 24.0006 25.0121C23.5684 24.1397 22.8623 23.4329 21.9904 23C22.8623 22.5671 23.5684 21.8603 24.0006 20.9879Z"
                  fill="#257688"/>
        </g>
        <defs>
            <clipPath id="clip0">
                <rect width="66" height="66" fill="white"/>
            </clipPath>
        </defs>
    </symbol>

    <symbol id="services-4">
        <path d="M59.8207 25.4716C59.8222 25.2666 59.8238 25.059 59.8255 24.8469C59.8625 20.3056 59.9133 14.0863 57.6087 8.56974C57.4028 8.07705 56.8365 7.84463 56.3438 8.05037C55.8511 8.25624 55.6186 8.82241 55.8244 9.31523C57.5184 13.3702 57.8484 17.9447 57.895 21.842H42.6633C42.7381 15.3076 43.5985 7.05957 50.279 2.14967C51.7696 3.24527 53.048 4.56672 54.0853 6.08476C54.3864 6.52563 54.9879 6.63894 55.4289 6.33755C55.8698 6.03642 55.983 5.4348 55.6817 4.99393C54.3828 3.0929 52.7472 1.46852 50.8203 0.16589C50.4931 -0.0553182 50.0644 -0.0553182 49.7371 0.166019C45.68 2.91063 43.0696 6.85938 41.7566 12.2379C40.8765 15.8428 40.7315 19.4808 40.7237 22.6582H8.42475C7.12611 22.6582 6.06957 23.7148 6.06957 25.0134C6.06957 25.1716 6.08504 25.3272 6.11521 25.4788C5.16889 25.6106 4.29462 26.0435 3.60689 26.7313C2.77195 27.5662 2.31226 28.6765 2.31226 29.8578C2.31226 32.2964 4.2963 34.2804 6.73488 34.2804H10.4629V48.3357C10.4629 48.8696 10.8958 49.3025 11.4298 49.3025H23.3182C23.8521 49.3025 24.285 48.8696 24.285 48.3357V43.6136L27.4619 46.7906L14.9358 59.3167C14.1956 60.056 13.7879 61.0394 13.7879 62.0858C13.7879 63.1321 14.1956 64.1156 14.9358 64.8549C15.6995 65.6176 16.7021 65.999 17.7047 65.999C18.7072 65.999 19.71 65.6175 20.4729 64.8546L24.8906 60.4382C25.2682 60.0606 25.2683 59.4486 24.8907 59.0709C24.5131 58.6933 23.9009 58.6931 23.5234 59.0707L19.1055 63.4873C18.3331 64.2596 17.0756 64.2595 16.3021 63.4869C15.9277 63.1128 15.7214 62.6152 15.7214 62.0858C15.7214 61.5564 15.9277 61.0589 16.3025 60.6843L28.829 48.1579L31.6325 50.9614L26.2291 56.3638C25.8515 56.7412 25.8513 57.3534 26.2289 57.731C26.4176 57.9198 26.6652 58.0142 26.9127 58.0142C27.16 58.0142 27.4074 57.9198 27.5963 57.7311L32.9999 52.3286L45.5259 64.8546C46.2894 65.6182 47.2919 65.9997 48.2948 65.9997C49.2975 65.9997 50.3005 65.6179 51.0638 64.8546C52.5907 63.3278 52.5907 60.8434 51.0638 59.3166L38.538 46.7907L51.0481 34.2806H59.265C60.4463 34.2806 61.5566 33.8208 62.3916 32.9859C63.2273 32.1501 63.6876 31.0391 63.6876 29.858C63.6878 27.6077 61.9979 25.7459 59.8207 25.4716ZM42.6717 25.4355C42.6703 25.2364 42.6687 25.0349 42.667 24.8292C42.6642 24.4864 42.6614 24.1346 42.6594 23.7756H57.8994C57.8974 24.1362 57.8947 24.4891 57.8919 24.8311C57.8902 25.0362 57.8886 25.2371 57.8872 25.4355H42.6717ZM8.42475 24.592H40.7315C40.7321 24.6759 40.7328 24.7619 40.7334 24.8449C40.7351 25.0453 40.7366 25.2412 40.7379 25.4351H8.42475C8.27238 25.4351 8.17118 25.3571 8.12606 25.3122C8.06999 25.2561 8.00321 25.1588 8.00321 25.0135C8.00321 24.7811 8.19232 24.592 8.42475 24.592ZM6.73488 32.3471C5.36251 32.3471 4.2459 31.2304 4.2459 29.8581C4.2459 29.1933 4.50449 28.5685 4.97423 28.0989C5.44475 27.6283 6.06996 27.3691 6.73488 27.3691H10.4629V32.3471H6.73488ZM26.028 34.2807H39.9719L32.9999 41.2526L26.028 34.2807ZM22.3512 40.7891H12.3964V27.3692H22.3512V40.7891ZM12.3964 47.3691V42.7227H22.3512V47.3691H12.3964ZM49.6966 63.4875C48.9235 64.2604 47.666 64.2605 46.8931 63.4875L29.5233 46.1178C29.5198 46.1142 29.5169 46.1102 29.5133 46.1067C29.5097 46.1032 29.5058 46.1001 29.5022 46.0967L24.2848 40.8793V35.2721L36.4869 47.4742C36.487 47.4743 36.487 47.4744 36.4871 47.4744C36.4873 47.4744 36.4874 47.4746 36.4875 47.4747L49.6967 60.6839C50.4697 61.4568 50.4697 62.7146 49.6966 63.4875ZM37.1709 45.4235L34.3672 42.62L42.7065 34.2807H48.3137L37.1709 45.4235ZM61.0245 31.6187C60.5548 32.0885 59.9301 32.3471 59.2653 32.3471H24.2848V27.3691H59.2651C60.6375 27.3691 61.7541 28.4857 61.7541 29.8581C61.7541 30.5229 61.495 31.1481 61.0245 31.6187Z"
              fill="#218095"/>
        <path d="M46.4766 19.2595C47.0105 19.2595 47.4434 18.8267 47.4434 18.2927C47.4434 17.7588 47.0105 17.3259 46.4766 17.3259C45.9426 17.3259 45.5098 17.7588 45.5098 18.2927C45.5098 18.8267 45.9426 19.2595 46.4766 19.2595Z"
              fill="#218095"/>
        <path d="M46.7532 14.5591C47.2871 14.5591 47.72 14.1262 47.72 13.5923C47.72 13.0583 47.2871 12.6255 46.7532 12.6255C46.2192 12.6255 45.7864 13.0583 45.7864 13.5923C45.7864 14.1262 46.2192 14.5591 46.7532 14.5591Z"
              fill="#218095"/>
        <path d="M50.2795 9.67456C50.8135 9.67456 51.2463 9.24171 51.2463 8.70777C51.2463 8.17382 50.8135 7.74097 50.2795 7.74097C49.7456 7.74097 49.3127 8.17382 49.3127 8.70777C49.3127 9.24171 49.7456 9.67456 50.2795 9.67456Z"
              fill="#218095"/>
        <path d="M53.8047 14.5591C54.3386 14.5591 54.7715 14.1262 54.7715 13.5923C54.7715 13.0583 54.3386 12.6255 53.8047 12.6255C53.2707 12.6255 52.8379 13.0583 52.8379 13.5923C52.8379 14.1262 53.2707 14.5591 53.8047 14.5591Z"
              fill="#218095"/>
        <path d="M54.0818 19.2595C54.6157 19.2595 55.0486 18.8267 55.0486 18.2927C55.0486 17.7588 54.6157 17.3259 54.0818 17.3259C53.5478 17.3259 53.115 17.7588 53.115 18.2927C53.115 18.8267 53.5478 19.2595 54.0818 19.2595Z"
              fill="#218095"/>
    </symbol>

    <symbol id="services-5" viewBox="0 0 66 66" fill="none" xmlns="http://www.w3.org/2000/svg">
        <path d="M53.9199 8.55713L59.0753 3.40171L60.5335 4.85989L55.3781 10.0153L53.9199 8.55713Z" fill="#218095"/>
        <path d="M57.75 10.3125H63.9375V12.375H57.75V10.3125Z" fill="#218095"/>
        <path d="M53.9189 14.1396L55.3771 12.6815L60.5326 17.8369L59.0744 19.2951L53.9189 14.1396Z" fill="#218095"/>
        <path d="M1.55103 44.4799L2.57403 46.2701L9.03584 42.5782C9.96087 43.5703 10.6539 44.087 10.7446 44.1519C10.923 44.2798 11.1334 44.3438 11.3438 44.3438C11.5242 44.3438 11.7068 44.2963 11.8687 44.2004L32.2596 32.1513C31.3892 36.2103 30.9375 40.3673 30.9375 44.5201V57.75C30.9375 58.3192 31.3995 58.7812 31.9688 58.7812H49.5C49.96 58.7812 50.3652 58.476 50.4911 58.0336L51.9812 52.8186C52.3875 51.3965 52.5938 49.9249 52.5938 48.4471C52.5938 44.1953 50.9386 40.1992 47.9315 37.1931L43.3125 32.5731V29.7165C44.5098 29.2896 45.375 28.1552 45.375 26.8125C45.375 26.0174 45.0646 25.2986 44.5707 24.75C45.0657 24.2014 45.375 23.4826 45.375 22.6875C45.375 22.0131 45.1523 21.3922 44.7841 20.8838L46.2753 19.8897L47.7397 21.3541L49.1979 19.8959L48.4977 19.1957L50.3982 18.8152C51.6698 18.5615 52.5938 17.4343 52.5938 16.137C52.5938 14.6324 51.3707 13.4083 49.8022 13.4083C49.8012 13.4083 49.8001 13.4083 49.7991 13.4083L49.5598 13.4227L49.7496 13.3753C50.2095 13.2608 50.5313 12.8483 50.5313 12.375V10.3125C50.5313 9.83916 50.2085 9.42666 49.7506 9.31219L45.6256 8.28094L45.6205 8.2995C45.54 8.27888 45.4617 8.25 45.375 8.25H33C32.4308 8.25 31.9688 8.712 31.9688 9.28125V14.4375C31.9688 14.8283 32.1895 15.1852 32.5391 15.3605L33.0526 15.6172L24.3571 21.7037L3.9724 24.7613C3.46709 24.8366 3.09378 25.2708 3.09378 25.7812C3.09378 26.1865 3.12162 26.5629 3.13606 26.9527L1.90578 27.1415L2.21928 29.1803L3.27837 29.0173C3.86721 34.6397 5.89465 38.5388 7.70037 40.9664L1.55103 44.4799ZM33 56.7188V54.6562H49.3113L48.7214 56.7188H33ZM46.4733 38.6502C49.0906 41.2675 50.5313 44.7459 50.5313 48.4471C50.5313 49.7341 50.3518 51.0149 49.9981 52.2524L49.9012 52.5938H33V44.5201C33 40.3714 33.4558 36.2154 34.3561 32.1667L36.9208 20.625H38.9607C38.4657 21.1736 38.1563 21.8924 38.1563 22.6875C38.1563 23.4826 38.4667 24.2014 38.9607 24.75C38.4657 25.2986 38.1563 26.0174 38.1563 26.8125C38.1563 28.5182 39.5443 29.9062 41.25 29.9062V33C41.25 33.2733 41.3583 33.5363 41.5522 33.7291L46.4733 38.6502ZM43.3125 22.6875C43.3125 23.2557 42.8495 23.7188 42.2813 23.7188H41.25C40.6818 23.7188 40.2188 23.2557 40.2188 22.6875C40.2188 22.1193 40.6818 21.6562 41.25 21.6562H42.2813C42.8495 21.6562 43.3125 22.1193 43.3125 22.6875ZM42.2813 27.8438H41.25C40.6818 27.8438 40.2188 27.3807 40.2188 26.8125C40.2188 26.2443 40.6818 25.7812 41.25 25.7812H42.2813C42.8495 25.7812 43.3125 26.2443 43.3125 26.8125C43.3125 27.3807 42.8495 27.8438 42.2813 27.8438ZM42.9052 19.6567C42.7041 19.6154 42.4947 19.5938 42.2813 19.5938H41.4769C41.9719 19.0451 42.2813 18.3263 42.2813 17.5312C42.2813 16.9579 42.1142 16.4278 41.842 15.9668L42.3225 15.9369L44.7872 18.4016L42.9052 19.6567ZM49.863 15.4688C50.2312 15.4688 50.5313 15.7688 50.5313 16.137C50.5313 16.4546 50.3054 16.731 49.994 16.7929L46.7456 17.4426L45.0687 15.7657L49.863 15.4688ZM48.4688 11.5696L46.4063 12.0852V10.6023L48.4688 11.1179V11.5696ZM34.0313 10.3125H44.3438V12.7081L39.8393 14.5097C39.6289 14.4643 39.4113 14.4375 39.1875 14.4375H35.3059L34.0313 13.8002V10.3125ZM24.9027 23.7074C25.0604 23.6837 25.21 23.6239 25.3409 23.5331L35.3874 16.5H39.1875C39.7557 16.5 40.2188 16.963 40.2188 17.5312C40.2188 18.0995 39.7557 18.5625 39.1875 18.5625H35.0625C34.6717 18.5625 34.3149 18.7832 34.1396 19.1328L32.0771 23.2578L33.922 24.1807L34.0942 23.8353L32.8567 29.402L11.4459 42.0544C9.92478 40.6756 5.44296 35.8483 5.16968 26.6681L24.9027 23.7074Z"
              fill="#218095"/>
    </symbol>

    <symbol id="arrow-right" viewBox="0 0 12 20" xmlns="http://www.w3.org/2000/svg">
        <path d="M1.14909 10.3186L9.94499 19.0901C10.2332 19.3773 10.6998 19.3769 10.9875 19.0886C11.2749 18.8005 11.2742 18.3336 10.986 18.0462L2.71364 9.79667L10.9863 1.54721C11.2745 1.25973 11.2752 0.793182 10.9878 0.504957C10.8435 0.360474 10.6546 0.288231 10.4657 0.288231C10.2772 0.288231 10.089 0.359991 9.94503 0.503471L1.14909 9.27482C1.01029 9.41291 0.932404 9.60085 0.932404 9.79667C0.932404 9.99248 1.01052 10.1802 1.14909 10.3186Z"
        />
    </symbol>

    <symbol id="arrow-left" viewBox="0 0 12 20" xmlns="http://www.w3.org/2000/svg">
        <path d="M10.8509 9.68145L2.05501 0.909874C1.76682 0.622653 1.30024 0.623135 1.01254 0.91136C0.725055 1.19955 0.725798 1.66639 1.01402 1.95383L9.28636 10.2033L1.01372 18.4528C0.725537 18.7403 0.724795 19.2068 1.01224 19.495C1.15646 19.6395 1.34541 19.7118 1.53435 19.7118C1.72281 19.7118 1.91101 19.64 2.05497 19.4965L10.8509 10.7252C10.9897 10.5871 11.0676 10.3991 11.0676 10.2033C11.0676 10.0075 10.9895 9.8198 10.8509 9.68145Z"
              />
    </symbol>

    <symbol id="close" viewBox="0 0 15 15" xmlns="http://www.w3.org/2000/svg">
        <g clip-path="url(#clip0)">
            <path d="M0.972146 15.0119C0.723371 15.0119 0.474417 14.9167 0.285077 14.7272C-0.0950258 14.3473 -0.0950258 13.733 0.285077 13.353L13.3408 0.297151C13.7207 -0.0827742 14.335 -0.0827742 14.7149 0.297151C15.095 0.677076 15.095 1.29136 14.7149 1.67129L1.65921 14.7272C1.46863 14.9176 1.22092 15.0119 0.972146 15.0119Z"/>
            <path d="M14.0279 15.0119C13.7791 15.0119 13.5303 14.9167 13.3408 14.7272L0.285077 1.67129C-0.0950258 1.29136 -0.0950258 0.677076 0.285077 0.297151C0.665003 -0.0827742 1.27911 -0.0827742 1.65921 0.297151L14.7149 13.353C15.095 13.733 15.095 14.3473 14.7149 14.7272C14.5254 14.9176 14.2766 15.0119 14.0279 15.0119Z"/>
        </g>
        <defs>
            <clipPath id="clip0">
                <rect width="15" height="15" />
            </clipPath>
        </defs>
    </symbol>



</svg>