<svg width="140" height="140" viewBox="0 0 140 140" fill="none" xmlns="http://www.w3.org/2000/svg">
<g clip-path="url(#clip0)">
<path d="M65.1075 139.538L65.1164 139.55L65.1256 139.562C65.3537 139.86 65.6132 140.049 65.7281 140.127C68.6456 143.109 72.8551 142.251 74.884 139.546L74.8844 139.545C80.5613 131.971 88.6002 121.113 96.2154 110.822C96.8247 109.998 97.4313 109.179 98.0337 108.364C104.964 98.9977 111.346 90.3728 115.019 85.4732L115.214 85.2134L115.224 85.1834C121.83 75.8292 125.32 64.8126 125.32 53.3203C125.32 22.8157 100.505 -2 70 -2C39.4954 -2 14.6797 22.8157 14.6797 53.3203C14.6797 65.3841 18.4927 76.8592 25.7136 86.4814C25.7147 86.4829 25.7158 86.4843 25.7169 86.4858L65.1075 139.538ZM113.419 84.2734C113.433 84.2782 113.448 84.2829 113.462 84.2876L113.419 84.2734ZM70 80.0859C55.2753 80.0859 43.2344 68.045 43.2344 53.3203C43.2344 38.5956 55.2753 26.5547 70 26.5547C84.7247 26.5547 96.7656 38.5956 96.7656 53.3203C96.7656 68.045 84.7247 80.0859 70 80.0859Z" fill="#1EAFCF" stroke="white" stroke-width="4"/>
</g>
<defs>
<clipPath id="clip0">
<rect width="140" height="140" fill="white"/>
</clipPath>
</defs>
</svg>
